<svg width="22" height="23" viewBox="0 0 22 23" fill="none" xmlns="http://www.w3.org/2000/svg">
<path d="M19.8371 0.8125H1.87425C0.892728 0.8125 0.0351562 1.52617 0.0351562 2.50637V20.6986C0.0351562 21.6842 0.892728 22.5624 1.87425 22.5624H19.8319C20.8187 22.5624 21.5585 21.6784 21.5585 20.6986V2.50637C21.5643 1.52617 20.8187 0.8125 19.8371 0.8125ZM6.70692 18.9421H3.62351V9.25419H6.70692V18.9421ZM5.27187 7.78122H5.24977C4.26296 7.78122 3.62399 7.0389 3.62399 6.10968C3.62399 5.16346 4.27978 4.43862 5.28869 4.43862C6.29759 4.43862 6.91495 5.15812 6.93705 6.10968C6.93657 7.0389 6.29759 7.78122 5.27187 7.78122ZM17.9759 18.9421H14.8925V13.645C14.8925 12.3759 14.4438 11.5088 13.3282 11.5088C12.476 11.5088 11.9715 12.0914 11.7471 12.6589C11.6631 12.8628 11.6405 13.1405 11.6405 13.4241V18.9421H8.55707V9.25419H11.6405V10.6024C12.0892 9.9567 12.7902 9.02747 14.4212 9.02747C16.4453 9.02747 17.9764 10.3757 17.9764 13.2823L17.9759 18.9421Z" fill="#D2D2D2"/>
</svg>
