<svg width="23" height="23" viewBox="0 0 23 23" fill="none" xmlns="http://www.w3.org/2000/svg">
<path d="M15.6018 2.76323C16.8178 2.76676 17.983 3.23805 18.8428 4.07417C19.7026 4.91028 20.1873 6.04329 20.1909 7.22573V16.1498C20.1873 17.3322 19.7026 18.4652 18.8428 19.3013C17.983 20.1375 16.8178 20.6087 15.6018 20.6123H6.4245C5.2085 20.6087 4.04335 20.1375 3.1835 19.3013C2.32366 18.4652 1.83899 17.3322 1.83536 16.1498V7.22573C1.83899 6.04329 2.32366 4.91028 3.1835 4.07417C4.04335 3.23805 5.2085 2.76676 6.4245 2.76323H15.6018ZM15.6018 0.978516H6.4245C2.89095 0.978516 0 3.78969 0 7.22573V16.1498C0 19.5858 2.89095 22.397 6.4245 22.397H15.6018C19.1353 22.397 22.0263 19.5858 22.0263 16.1498V7.22573C22.0263 3.78969 19.1353 0.978516 15.6018 0.978516Z" fill="#D2D2D2"/>
<path d="M16.9797 7.22614C16.7074 7.22614 16.4412 7.14763 16.2149 7.00053C15.9885 6.85344 15.812 6.64437 15.7078 6.39976C15.6036 6.15516 15.5764 5.886 15.6295 5.62632C15.6826 5.36665 15.8137 5.12813 16.0062 4.94091C16.1988 4.7537 16.4441 4.6262 16.7111 4.57455C16.9782 4.5229 17.2549 4.54941 17.5065 4.65073C17.758 4.75205 17.973 4.92363 18.1243 5.14377C18.2756 5.36391 18.3563 5.62272 18.3563 5.88748C18.3567 6.06338 18.3214 6.23763 18.2523 6.40021C18.1833 6.56279 18.0819 6.71052 17.954 6.8349C17.8261 6.95928 17.6742 7.05787 17.507 7.12501C17.3398 7.19215 17.1606 7.22652 16.9797 7.22614ZM11.0144 8.11826C11.7405 8.11826 12.4503 8.32763 13.054 8.71989C13.6577 9.11216 14.1283 9.6697 14.4061 10.322C14.684 10.9743 14.7567 11.6921 14.6151 12.3846C14.4734 13.0771 14.1238 13.7132 13.6103 14.2125C13.0969 14.7117 12.4428 15.0517 11.7306 15.1895C11.0185 15.3272 10.2803 15.2565 9.60948 14.9863C8.93865 14.7161 8.36528 14.2586 7.96189 13.6715C7.55849 13.0844 7.34318 12.3942 7.34318 11.6882C7.34422 10.7417 7.73134 9.83424 8.4196 9.16497C9.10786 8.49571 10.041 8.11927 11.0144 8.11826ZM11.0144 6.33354C9.92529 6.33354 8.86065 6.64758 7.9551 7.23596C7.04955 7.82433 6.34376 8.66061 5.92698 9.63904C5.5102 10.6175 5.40115 11.6941 5.61362 12.7328C5.82609 13.7715 6.35055 14.7256 7.12065 15.4744C7.89076 16.2233 8.87194 16.7333 9.94011 16.9399C11.0083 17.1465 12.1155 17.0405 13.1217 16.6352C14.1279 16.2299 14.9879 15.5436 15.5929 14.663C16.198 13.7825 16.521 12.7472 16.521 11.6882C16.521 10.268 15.9408 8.90606 14.9081 7.90187C13.8754 6.89769 12.4748 6.33354 11.0144 6.33354Z" fill="#D2D2D2"/>
</svg>
