<svg width="30" height="27" viewBox="0 0 30 27" fill="none" xmlns="http://www.w3.org/2000/svg">
<path d="M19.2148 13.6875C18.7745 13.6875 18.344 13.8195 17.9778 14.0667C17.6117 14.3139 17.3263 14.6653 17.1578 15.0765C16.9892 15.4876 16.9452 15.94 17.0311 16.3765C17.117 16.8129 17.329 17.2138 17.6404 17.5285C17.9518 17.8432 18.3486 18.0574 18.7805 18.1443C19.2124 18.2311 19.6601 18.1865 20.0669 18.0162C20.4738 17.8459 20.8215 17.5575 21.0662 17.1875C21.3108 16.8175 21.4414 16.3825 21.4414 15.9375C21.4414 15.3408 21.2068 14.7685 20.7893 14.3465C20.3717 13.9246 19.8054 13.6875 19.2148 13.6875Z" fill="#D2D2D2"/>
<path d="M11.6557 18.0161C12.7918 17.5406 13.3313 16.2244 12.8608 15.0764C12.3902 13.9283 11.0877 13.3832 9.95161 13.8587C8.81552 14.3342 8.27602 15.6504 8.7466 16.7985C9.21718 17.9465 10.5197 18.4917 11.6557 18.0161Z" fill="#D2D2D2"/>
<path d="M29.7252 13.5495C29.7252 11.6188 28.1833 10.0485 26.2906 10.0485C25.4928 10.0484 24.7201 10.33 24.1065 10.8445C21.9598 9.37314 19.152 8.47251 16.1546 8.2899L17.5039 3.39988L21.5771 4.21695C21.6936 5.85603 23.0491 7.15653 24.6836 7.15653C26.401 7.15653 27.7981 5.73285 27.7981 3.98668C27.7981 2.24051 26.3519 0.8125 24.6346 0.8125C23.4367 0.8125 22.4075 1.50515 21.8837 2.59334L16.3637 1.48596L14.4563 8.26514L14.1723 8.27319C11.067 8.40999 8.14077 9.32114 5.9064 10.8439C5.29291 10.3275 4.51871 10.0458 3.71986 10.0485C1.82527 10.0485 0.28519 11.6188 0.28519 13.5495C0.282486 14.164 0.440462 14.7683 0.743171 15.3015C1.04588 15.8347 1.48261 16.2778 2.00927 16.5862C1.9726 16.8599 1.95436 17.1358 1.95469 17.412C1.96143 19.8718 3.33407 22.1782 5.81869 23.9114C8.28061 25.6198 11.5405 26.5625 15.0052 26.5625C18.4699 26.5625 21.7372 25.6198 24.1948 23.9076C26.6806 22.1745 28.0496 19.8675 28.0496 17.4045C28.049 17.1293 28.0318 16.8544 27.9981 16.5813C28.5251 16.2742 28.9623 15.8321 29.2656 15.2998C29.5689 14.7674 29.7274 14.1636 29.7252 13.5495ZM24.6959 2.48377C24.987 2.48377 25.2716 2.5709 25.5137 2.73414C25.7558 2.89738 25.9444 3.12939 26.0558 3.40085C26.1672 3.6723 26.1964 3.971 26.1396 4.25917C26.0828 4.54735 25.9426 4.81205 25.7367 5.01981C25.5309 5.22757 25.2686 5.36906 24.9831 5.42638C24.6975 5.4837 24.4015 5.45429 24.1326 5.34185C23.8636 5.22941 23.6337 5.039 23.472 4.79469C23.3102 4.55039 23.2239 4.26317 23.2239 3.96935C23.2239 3.57535 23.379 3.19749 23.655 2.91889C23.9311 2.64029 24.3055 2.48377 24.6959 2.48377ZM1.92402 13.5495C1.92222 13.0643 2.11119 12.5982 2.44946 12.2534C2.78774 11.9087 3.2477 11.7134 3.72845 11.7104C4.01993 11.7111 4.3068 11.784 4.56381 11.9228C3.61314 12.8147 2.9121 13.8051 2.47418 14.8741C2.30055 14.7008 2.16256 14.4945 2.06815 14.2672C1.97374 14.0399 1.92476 13.7959 1.92402 13.5495ZM23.2742 22.5391C21.0821 24.0612 18.1467 24.8999 15.0083 24.8999C11.8698 24.8999 8.9332 24.0624 6.74298 22.5391C4.71898 21.1284 3.60026 19.3042 3.60026 17.4014C3.60139 16.8249 3.70419 16.2531 3.90386 15.7128C4.25224 14.7385 4.89501 13.8262 5.8144 13.0023C6.10164 12.7462 6.40395 12.5079 6.71968 12.2886L6.73808 12.2756L6.7528 12.2651C8.94363 10.7473 11.8754 9.9129 15.0089 9.9129C18.1424 9.9129 21.0748 10.7492 23.2656 12.2651L23.2797 12.2756L23.3006 12.2911C23.6159 12.5095 23.918 12.7468 24.2052 13.0017C25.1252 13.8262 25.768 14.7379 26.1164 15.7135C26.2428 16.0675 26.3314 16.4342 26.3807 16.8072C26.4053 17.0054 26.4176 17.2048 26.4175 17.4045C26.4169 19.3061 25.3006 21.1302 23.2742 22.5391ZM27.543 14.8685C27.1057 13.7989 26.4046 12.8079 25.4534 11.9147C25.7114 11.7774 25.9988 11.7059 26.2906 11.7067C26.7712 11.7097 27.2311 11.905 27.5693 12.2497C27.9075 12.5945 28.0963 13.0606 28.0944 13.5458C28.0939 13.7923 28.045 14.0363 27.9503 14.2636C27.8557 14.4909 27.7172 14.6969 27.543 14.8698V14.8685Z" fill="#D2D2D2"/>
<path d="M19.1664 20.3263C19.1509 20.3419 17.5855 21.9556 15.0132 21.9681C12.4155 21.9556 10.9139 20.3913 10.8501 20.3263C10.8022 20.2782 10.7374 20.2512 10.6699 20.2512C10.6023 20.2512 10.5375 20.2782 10.4896 20.3263L9.64224 21.1681C9.61821 21.1922 9.59914 21.2209 9.58612 21.2525C9.57311 21.2841 9.56641 21.318 9.56641 21.3522C9.56641 21.3864 9.57311 21.4203 9.58612 21.4519C9.59914 21.4835 9.61821 21.5121 9.64224 21.5362C9.85252 21.7487 11.7884 23.6756 15.0095 23.6894C18.2219 23.6756 20.1665 21.7487 20.3767 21.5362C20.4008 21.5121 20.4199 21.4834 20.4329 21.4517C20.4459 21.4201 20.4526 21.3861 20.4526 21.3519C20.4526 21.3176 20.4459 21.2837 20.4329 21.252C20.4199 21.2204 20.4008 21.1917 20.3767 21.1675L19.5288 20.3256C19.481 20.2778 19.4164 20.251 19.3491 20.251C19.2818 20.251 19.2173 20.2778 19.1694 20.3256L19.1664 20.3263Z" fill="#D2D2D2"/>
</svg>
