<svg width="23" height="18" viewBox="0 0 23 18" fill="none" xmlns="http://www.w3.org/2000/svg">
<path d="M22.0326 2.1393C21.2355 2.48901 20.3923 2.7194 19.5294 2.8232C20.4362 2.28698 21.1182 1.43509 21.4474 0.427312C20.59 0.933574 19.6535 1.28879 18.6781 1.47775C18.2674 1.04306 17.7734 0.697254 17.2262 0.461348C16.679 0.225443 16.09 0.104366 15.495 0.105476C13.0861 0.105476 11.1366 2.04543 11.1366 4.43685C11.1349 4.76949 11.1727 5.10113 11.2491 5.42471C9.52168 5.34293 7.83023 4.89796 6.28291 4.11826C4.7356 3.33855 3.36649 2.24129 2.26318 0.896656C1.87611 1.55558 1.67141 2.30739 1.67046 3.07352C1.67046 4.57542 2.44644 5.90299 3.61814 6.68076C2.92394 6.66412 2.24396 6.47858 1.63594 6.1399V6.19353C1.63594 8.29441 3.14096 10.0422 5.13291 10.44C4.75832 10.5408 4.37232 10.5919 3.98466 10.592C3.70959 10.5924 3.43514 10.5655 3.16531 10.5115C3.71907 12.2324 5.33077 13.484 7.23994 13.5198C5.6886 14.7271 3.78397 15.3796 1.82539 15.3748C1.47774 15.3743 1.13041 15.3534 0.785156 15.3122C2.77762 16.597 5.09371 17.2765 7.45773 17.27C15.4857 17.27 19.8715 10.6679 19.8715 4.94195C19.8715 4.75421 19.8667 4.56648 19.8578 4.38321C20.7091 3.77175 21.4455 3.01188 22.0326 2.1393Z" fill="#D2D2D2"/>
</svg>
