<svg width="27" height="20" viewBox="0 0 27 20" fill="none" xmlns="http://www.w3.org/2000/svg">
<path d="M26.1224 4.38272C26.1224 2.15622 24.4589 0.365125 22.4033 0.365125C19.619 0.236978 16.7794 0.1875 13.8774 0.1875H12.9728C10.0779 0.1875 7.23324 0.236978 4.44891 0.36562C2.39836 0.36562 0.734804 2.16661 0.734804 4.39312C0.609158 6.15403 0.555884 7.91544 0.558899 9.67685C0.553874 11.4383 0.610833 13.2013 0.729779 14.966C0.729779 17.1925 2.39334 18.9985 4.44389 18.9985C7.36894 19.1321 10.3694 19.1914 13.4201 19.1865C16.4758 19.1964 19.4679 19.1337 22.3963 18.9985C24.4518 18.9985 26.1154 17.1925 26.1154 14.966C26.236 13.1997 26.2913 11.4383 26.2863 9.6719C26.2977 7.91049 26.2431 6.14743 26.1224 4.38272ZM10.9624 14.5306V4.80823L18.2499 9.66696L10.9624 14.5306Z" fill="#D2D2D2"/>
</svg>
