<svg width="109" height="40" viewBox="0 0 109 40" fill="none" xmlns="http://www.w3.org/2000/svg">
<path d="M10.0995 31.7001C8.95953 31.7001 7.81953 31.6601 6.67953 31.5801C5.55953 31.5201 4.38953 31.3601 3.16953 31.1001V10.9401C4.12953 10.7601 5.17953 10.6301 6.31953 10.5501C7.45953 10.4501 8.51953 10.4001 9.49953 10.4001C10.8195 10.4001 12.0295 10.5001 13.1295 10.7001C14.2495 10.8801 15.2095 11.2001 16.0095 11.6601C16.8095 12.1201 17.4295 12.7301 17.8695 13.4901C18.3295 14.2301 18.5595 15.1501 18.5595 16.2501C18.5595 17.9101 17.7595 19.2201 16.1595 20.1801C17.4795 20.6801 18.3795 21.3601 18.8595 22.2201C19.3395 23.0801 19.5795 24.0501 19.5795 25.1301C19.5795 27.3101 18.7795 28.9501 17.1795 30.0501C15.5995 31.1501 13.2395 31.7001 10.0995 31.7001ZM7.72953 22.3701V27.7401C8.06953 27.7801 8.43953 27.8101 8.83953 27.8301C9.23953 27.8501 9.67953 27.8601 10.1595 27.8601C11.5595 27.8601 12.6895 27.6601 13.5495 27.2601C14.4095 26.8601 14.8395 26.1201 14.8395 25.0401C14.8395 24.0801 14.4795 23.4001 13.7595 23.0001C13.0395 22.5801 12.0095 22.3701 10.6695 22.3701H7.72953ZM7.72953 18.8001H10.0095C11.4495 18.8001 12.4795 18.6201 13.0995 18.2601C13.7195 17.8801 14.0295 17.2801 14.0295 16.4601C14.0295 15.6201 13.7095 15.0301 13.0695 14.6901C12.4295 14.3501 11.4895 14.1801 10.2495 14.1801C9.84953 14.1801 9.41953 14.1901 8.95953 14.2101C8.49953 14.2101 8.08953 14.2301 7.72953 14.2701V18.8001ZM27.4958 31.4301H23.0258V15.6501H27.4958V31.4301ZM27.9158 11.0901C27.9158 11.9101 27.6458 12.5601 27.1058 13.0401C26.5858 13.5001 25.9658 13.7301 25.2458 13.7301C24.5258 13.7301 23.8958 13.5001 23.3558 13.0401C22.8358 12.5601 22.5758 11.9101 22.5758 11.0901C22.5758 10.2701 22.8358 9.63013 23.3558 9.17013C23.8958 8.69013 24.5258 8.45013 25.2458 8.45013C25.9658 8.45013 26.5858 8.69013 27.1058 9.17013C27.6458 9.63013 27.9158 10.2701 27.9158 11.0901ZM31.5477 11.7201L36.0177 11.0001V15.6501H41.3877V19.3701H36.0177V24.9201C36.0177 25.8601 36.1777 26.6101 36.4977 27.1701C36.8377 27.7301 37.5077 28.0101 38.5077 28.0101C38.9877 28.0101 39.4777 27.9701 39.9777 27.8901C40.4977 27.7901 40.9677 27.6601 41.3877 27.5001L42.0177 30.9801C41.4777 31.2001 40.8777 31.3901 40.2177 31.5501C39.5577 31.7101 38.7477 31.7901 37.7877 31.7901C36.5677 31.7901 35.5577 31.6301 34.7577 31.3101C33.9577 30.9701 33.3177 30.5101 32.8377 29.9301C32.3577 29.3301 32.0177 28.6101 31.8177 27.7701C31.6377 26.9301 31.5477 26.0001 31.5477 24.9801V11.7201Z" fill="#263238"/>
<path d="M82.8995 28.3101C83.3395 28.3101 83.7595 28.3001 84.1595 28.2801C84.5595 28.2601 84.8795 28.2301 85.1195 28.1901V24.8001C84.9395 24.7601 84.6695 24.7201 84.3095 24.6801C83.9495 24.6401 83.6195 24.6201 83.3195 24.6201C82.8995 24.6201 82.4995 24.6501 82.1195 24.7101C81.7595 24.7501 81.4395 24.8401 81.1595 24.9801C80.8795 25.1201 80.6595 25.3101 80.4995 25.5501C80.3395 25.7901 80.2595 26.0901 80.2595 26.4501C80.2595 27.1501 80.4895 27.6401 80.9495 27.9201C81.4295 28.1801 82.0795 28.3101 82.8995 28.3101ZM82.5395 15.2301C83.8595 15.2301 84.9595 15.3801 85.8395 15.6801C86.7195 15.9801 87.4195 16.4101 87.9395 16.9701C88.4795 17.5301 88.8595 18.2101 89.0795 19.0101C89.2995 19.8101 89.4095 20.7001 89.4095 21.6801V30.9801C88.7695 31.1201 87.8795 31.2801 86.7395 31.4601C85.5995 31.6601 84.2195 31.7601 82.5995 31.7601C81.5795 31.7601 80.6495 31.6701 79.8095 31.4901C78.9895 31.3101 78.2795 31.0201 77.6795 30.6201C77.0795 30.2001 76.6195 29.6601 76.2995 29.0001C75.9795 28.3401 75.8195 27.5301 75.8195 26.5701C75.8195 25.6501 75.9995 24.8701 76.3595 24.2301C76.7395 23.5901 77.2395 23.0801 77.8595 22.7001C78.4795 22.3201 79.1895 22.0501 79.9895 21.8901C80.7895 21.7101 81.6195 21.6201 82.4795 21.6201C83.0595 21.6201 83.5695 21.6501 84.0095 21.7101C84.4695 21.7501 84.8395 21.8101 85.1195 21.8901V21.4701C85.1195 20.7101 84.8895 20.1001 84.4295 19.6401C83.9695 19.1801 83.1695 18.9501 82.0295 18.9501C81.2695 18.9501 80.5195 19.0101 79.7795 19.1301C79.0395 19.2301 78.3995 19.3801 77.8595 19.5801L77.2895 15.9801C77.5495 15.9001 77.8695 15.8201 78.2495 15.7401C78.6495 15.6401 79.0795 15.5601 79.5395 15.5001C79.9995 15.4201 80.4795 15.3601 80.9795 15.3201C81.4995 15.2601 82.0195 15.2301 82.5395 15.2301ZM99.7216 20.4501L102.842 15.6501H107.462L102.062 23.2401C103.262 24.7401 104.352 26.2001 105.332 27.6201C106.312 29.0401 107.092 30.3101 107.672 31.4301H102.872C102.712 31.1301 102.512 30.7601 102.272 30.3201C102.032 29.8601 101.762 29.3901 101.462 28.9101C101.162 28.4101 100.842 27.9201 100.502 27.4401C100.182 26.9401 99.8616 26.4901 99.5416 26.0901C99.2416 26.4701 98.9316 26.8901 98.6116 27.3501C98.3116 27.8101 98.0216 28.2801 97.7416 28.7601C97.4616 29.2201 97.1816 29.6801 96.9016 30.1401C96.6416 30.6001 96.4116 31.0301 96.2116 31.4301H91.6516C91.8916 30.9301 92.2216 30.3401 92.6416 29.6601C93.0616 28.9801 93.5116 28.2801 93.9916 27.5601C94.4916 26.8201 95.0116 26.0901 95.5516 25.3701C96.0916 24.6301 96.6216 23.9401 97.1416 23.3001C96.2416 22.0401 95.3416 20.7701 94.4416 19.4901C93.5416 18.1901 92.6516 16.9101 91.7716 15.6501H96.6016L99.7216 20.4501Z" fill="#263238"/>
<path d="M53.2695 11.4301L61.4968 30.1801H45.0423L53.2695 11.4301Z" fill="#FEBA66"/>
<path d="M63.2695 11.4301L71.4968 30.1801H55.0423L63.2695 11.4301Z" fill="#EDA54C"/>
</svg>
