<svg width="129" height="34" viewBox="0 0 129 34" fill="none" xmlns="http://www.w3.org/2000/svg">
<path d="M27.8559 33.4957H6.76057C3.2939 33.4957 0.484375 30.7142 0.484375 27.2822V6.39789C0.484375 2.96589 3.2939 0.184448 6.76057 0.184448H27.8559C31.3225 0.184448 34.1321 2.96589 34.1321 6.39789V27.2822C34.1321 30.7142 31.3225 33.4957 27.8559 33.4957Z" fill="#7782FF"/>
<path d="M23.3708 17.1465C23.9708 17.8914 24.2755 18.7588 24.2755 19.7394C24.2755 21.182 23.7898 22.3134 22.8184 23.1148C21.847 23.9162 20.4565 24.3311 18.647 24.3311H10.7422V7.50107H18.4565C20.1898 7.50107 21.5232 7.87821 22.466 8.62307C23.4089 9.36793 23.8851 10.4334 23.8851 11.8099C23.8851 12.8282 23.6089 13.6674 23.066 14.3462C22.5232 15.0251 21.8089 15.4588 20.9232 15.6662C21.9613 15.9114 22.7708 16.4017 23.3708 17.1465ZM14.847 14.3839H17.5422C18.9708 14.3839 19.685 13.7805 19.685 12.5737C19.685 11.3668 18.9517 10.7634 17.4946 10.7634H14.847V14.3839ZM20.066 19.1737C20.066 18.5702 19.866 18.0988 19.466 17.7594C19.066 17.42 18.4946 17.2502 17.7612 17.2502H14.8565V21.0311H17.7898C19.3041 21.0217 20.066 20.4088 20.066 19.1737Z" fill="white"/>
<path d="M53.6262 24.3311L49.95 17.9762H49.0166V24.3311H44.9023V7.50107H51.9214C53.2643 7.50107 54.4071 7.72736 55.3309 8.18936C56.2643 8.65136 56.9595 9.28307 57.4262 10.0845C57.8928 10.8859 58.1214 11.8005 58.1214 12.8377C58.1214 14.0634 57.7786 15.1005 57.1024 15.9585C56.4167 16.8165 55.4357 17.4011 54.1309 17.7217L58.169 24.3405H53.6262V24.3311ZM49.0166 15.1948H51.5595C52.3785 15.1948 52.9786 15.0157 53.3595 14.6574C53.7405 14.2991 53.9404 13.7711 53.9404 13.0734C53.9404 12.4039 53.7405 11.8854 53.35 11.4988C52.9595 11.1216 52.3595 10.9237 51.5595 10.9237H49.0166V15.1948Z" fill="#263238"/>
<path d="M76.7329 21.2669H70.3615L69.3043 24.3406H64.9805L71.2091 7.63311H75.9424L82.171 24.3406H77.7996L76.7329 21.2669ZM75.6757 18.1648L73.5614 11.9797L71.4186 18.1648H75.6757Z" fill="#263238"/>
<path d="M104.863 24.3311H100.748L93.8721 13.9974V24.3311H89.7578V7.50107H93.8721L100.748 17.9291V7.50107H104.863V24.3311Z" fill="#263238"/>
<path d="M127.93 20.2768C127.216 21.5497 126.187 22.5491 124.854 23.2657C123.511 23.9822 121.94 24.3405 120.13 24.3405H113.711V7.51048H120.13C121.959 7.51048 123.54 7.85934 124.863 8.55706C126.197 9.25477 127.216 10.2353 127.93 11.5082C128.644 12.7811 128.997 14.2331 128.997 15.8925C128.997 17.5331 128.635 18.9945 127.93 20.2768ZM123.501 19.4282C124.387 18.5891 124.835 17.4011 124.835 15.8831C124.835 14.3556 124.387 13.1771 123.501 12.3379C122.616 11.4988 121.368 11.0745 119.759 11.0745H117.816V20.6917H119.759C121.368 20.6917 122.616 20.2768 123.501 19.4282Z" fill="#263238"/>
</svg>
