<svg width="93" height="38" viewBox="0 0 93 38" fill="none" xmlns="http://www.w3.org/2000/svg">
<path d="M0.722656 23.3099V0.566406H14.2529V23.2988H0.722656V23.3099ZM12.6135 18.0187L12.9616 15.5064L11.704 15.3842L11.3222 17.3184C10.5363 17.7074 9.57062 17.8964 8.4141 17.8964C6.84213 17.8964 5.59577 17.4073 4.68627 16.418C3.76554 15.4286 3.31641 14.128 3.31641 12.5051C3.31641 10.9266 3.76555 9.62602 4.65259 8.60334C5.53963 7.58066 6.70741 7.06932 8.15587 7.06932C8.89694 7.06932 9.52571 7.15825 10.031 7.32499C10.5363 7.49173 10.9966 7.71405 11.4345 8.00307L11.8051 9.91504L13.0851 9.79276L12.7146 7.28053C12.1756 6.82477 11.5356 6.45793 10.7945 6.16892C10.0534 5.89101 9.13273 5.7465 8.04358 5.7465C6.75232 5.7465 5.6407 6.05775 4.70875 6.69137C3.77679 7.32499 3.04695 8.1587 2.53044 9.19249C2.01394 10.2374 1.75568 11.3601 1.75568 12.5607C1.75568 14.4615 2.35078 16.0511 3.54099 17.3184C4.7312 18.5856 6.28071 19.2192 8.20076 19.2192C10.0871 19.2192 11.5581 18.819 12.6135 18.0187Z" fill="#263238"/>
<path d="M18.8438 23.3099V0.566345H24.66V23.2987H18.8438V23.3099ZM19.4613 19.0191H24.0537V17.8741H22.4705V5.17952H19.4389V6.32448H21.0445V17.8741H19.4613V19.0191Z" fill="#263238"/>
<path d="M29.2539 23.3099V0.566345H39.4717V23.2987H29.2539V23.3099ZM31.1066 10.7487L30.781 12.8163L31.9599 12.9608L32.308 11.4156C32.8133 11.1711 33.3859 11.0488 34.0596 11.0488C34.8681 11.0488 35.4183 11.2489 35.699 11.6491C35.9797 12.0493 36.1145 12.5717 36.1145 13.2165V14.0168C35.8674 13.9946 35.6092 13.9724 35.3285 13.9612C35.0478 13.9501 34.7783 13.939 34.5088 13.939C33.4983 13.939 32.5326 14.1169 31.6343 14.4726C30.736 14.8283 30.2869 15.5731 30.2869 16.6958C30.2869 17.6518 30.5901 18.3076 31.2077 18.6633C31.8252 19.0302 32.4316 19.208 33.0267 19.208C33.7565 19.208 34.3853 19.0191 34.9018 18.6411C35.4183 18.2632 35.8225 17.8407 36.1145 17.3516V17.3961C36.1369 18.6078 36.6871 19.208 37.765 19.208C38.1805 19.208 38.5735 19.108 38.944 18.9079L38.9216 17.9853C38.7419 18.0631 38.5398 18.1075 38.3152 18.1075C37.7987 18.1075 37.5405 17.7852 37.5405 17.1404V12.883C37.5405 10.8821 36.4625 9.88163 34.3067 9.88163C33.7116 9.88163 33.1502 9.94833 32.6224 10.0817C32.0835 10.2262 31.5782 10.4485 31.1066 10.7487ZM36.1032 15.662C36.0471 16.3957 35.7439 16.9848 35.1937 17.4072C34.6435 17.8407 34.0597 18.052 33.4309 18.052C33.0379 18.052 32.6561 17.9408 32.2968 17.7296C31.9263 17.5184 31.7466 17.1182 31.7466 16.5402C31.7466 15.8399 32.0273 15.3952 32.5663 15.184C33.1165 14.9728 33.7228 14.8728 34.4077 14.8728C34.7109 14.8728 35.0028 14.8839 35.2835 14.9172C35.5642 14.9395 35.845 14.9617 36.092 14.9728V15.662H36.1032Z" fill="#263238"/>
<path d="M44.0742 23.3099V0.566345H53.3601V23.2987H44.0742V23.3099ZM52.3832 16.429C52.3832 15.7176 52.1923 15.1951 51.8106 14.8505C51.4288 14.5059 50.9684 14.2725 50.407 14.1391C49.8456 14.0057 49.2954 13.8945 48.7452 13.8056C48.195 13.7167 47.7234 13.5722 47.3417 13.3832C46.9599 13.1942 46.769 12.8607 46.769 12.3827C46.769 11.927 46.9487 11.5935 47.3192 11.3712C47.6897 11.1489 48.1501 11.0488 48.7227 11.0488C49.3852 11.0488 50.0028 11.1933 50.5755 11.4935L50.8 12.9386L51.979 12.794L51.7544 10.7042C51.3727 10.4708 50.9123 10.2818 50.3621 10.1262C49.8119 9.97056 49.228 9.88163 48.5993 9.88163C47.7684 9.88163 47.0048 10.0817 46.2974 10.4708C45.5901 10.8598 45.242 11.5268 45.242 12.4828C45.242 13.1831 45.4328 13.6944 45.8146 14.0168C46.1964 14.3503 46.668 14.5726 47.2406 14.706C47.8133 14.8394 48.3747 14.9506 48.9361 15.0506C49.4975 15.1395 49.9691 15.2952 50.3509 15.4953C50.7326 15.6953 50.9235 16.0399 50.9235 16.5402C50.9235 17.0515 50.6765 17.4295 50.1824 17.674C49.6884 17.9186 49.127 18.0408 48.487 18.0408C47.7683 18.0408 47.0946 17.8963 46.4771 17.5962L46.5332 16.4068L45.3992 16.2845L45.1184 18.3187C45.5114 18.5744 46.0279 18.7856 46.6567 18.9524C47.2855 19.1191 47.9143 19.208 48.5543 19.208C49.6435 19.208 50.553 18.9635 51.2829 18.4633C52.0127 17.9853 52.3832 17.2961 52.3832 16.429Z" fill="#263238"/>
<path d="M57.9531 23.3099V0.566376H67.2389V23.2988H57.9531V23.3099ZM66.2621 16.429C66.2621 15.7176 66.0712 15.1952 65.6894 14.8506C65.3077 14.506 64.8473 14.2725 64.2859 14.1391C63.7245 14.0057 63.1743 13.8946 62.6241 13.8056C62.0739 13.7167 61.6023 13.5722 61.2206 13.3832C60.8388 13.1943 60.6479 12.8608 60.6479 12.3828C60.6479 11.927 60.8275 11.5935 61.1981 11.3712C61.5686 11.1489 62.029 11.0488 62.6016 11.0488C63.2641 11.0488 63.8817 11.1934 64.4543 11.4935L64.6789 12.9386L65.8579 12.7941L65.6333 10.7043C65.2515 10.4708 64.7912 10.2818 64.241 10.1262C63.6908 9.97059 63.1069 9.88166 62.4781 9.88166C61.6472 9.88166 60.8837 10.0817 60.1763 10.4708C59.4689 10.8599 59.1209 11.5268 59.1209 12.4828C59.1209 13.1831 59.3117 13.6945 59.6935 14.0168C60.0753 14.3503 60.5469 14.5726 61.1195 14.706C61.6922 14.8394 62.2535 14.9506 62.815 15.0506C63.3764 15.1396 63.848 15.2952 64.2297 15.4953C64.6115 15.6954 64.8024 16.04 64.8024 16.5402C64.8024 17.0515 64.5554 17.4295 64.0614 17.674C63.5673 17.9186 63.0059 18.0409 62.3659 18.0409C61.6473 18.0409 60.9735 17.8964 60.3559 17.5962L60.4121 16.4068L59.2781 16.2845L58.9974 18.3188C59.3903 18.5744 59.9068 18.7856 60.5356 18.9524C61.1644 19.1191 61.7932 19.2081 62.4332 19.2081C63.5224 19.2081 64.4319 18.9635 65.1617 18.4633C65.8916 17.9853 66.2621 17.2961 66.2621 16.429Z" fill="#263238"/>
<path d="M71.832 23.3099V0.566345H77.9515V23.2987H71.832V23.3099ZM72.7303 19.0191H77.3227V17.8741H75.7395V10.0706H72.6966V11.2156H74.3247V17.8741H72.7415V19.0191H72.7303ZM74.1676 5.9243V7.75846H75.7171V5.9243H74.1676Z" fill="#263238"/>
<path d="M82.543 23.3099V0.566345H92.3229V23.2987H82.543V23.3099ZM91.4471 16.0066L90.2232 15.7398C89.9537 17.2516 89.1341 18.0075 87.7867 18.0075C86.8884 18.0075 86.2034 17.7074 85.7319 17.1071C85.2603 16.5068 85.0245 15.662 85.0245 14.5949C85.0245 13.6278 85.2378 12.8052 85.6532 12.116C86.0687 11.4268 86.7648 11.0933 87.7305 11.0933C88.4715 11.0933 89.1228 11.26 89.6618 11.5935L90.0099 13.1053L91.1888 12.9608L90.8408 10.8043C90.3804 10.4597 89.8976 10.2151 89.3923 10.0817C88.887 9.94833 88.3368 9.88163 87.7417 9.88163C86.3382 9.88163 85.2715 10.3707 84.5753 11.349C83.8679 12.3272 83.5198 13.4388 83.5198 14.6727C83.5198 16.1066 83.8904 17.2294 84.6427 18.0186C85.3837 18.819 86.3831 19.2191 87.6295 19.2191C88.8758 19.2191 89.7965 18.8745 90.3804 18.1965C90.9643 17.5073 91.3235 16.7847 91.4471 16.0066Z" fill="#263238"/>
<path d="M6.57332 35.7264C6.31507 36.1933 5.9333 36.5601 5.43925 36.8158C4.93397 37.0715 4.33886 37.2049 3.6427 37.2049H1.63281V30.9354H3.6427C4.33886 30.9354 4.9452 31.0577 5.43925 31.3133C5.9333 31.569 6.31507 31.9247 6.57332 32.4027C6.83158 32.8807 6.95508 33.4254 6.95508 34.0701C6.95508 34.7037 6.83158 35.2595 6.57332 35.7264ZM5.46169 35.8487C5.8996 35.4263 6.11296 34.8371 6.11296 34.0701C6.11296 33.3031 5.8996 32.714 5.46169 32.2915C5.02379 31.8691 4.39499 31.6579 3.56409 31.6579H2.43005V36.4823H3.56409C4.39499 36.4823 5.02379 36.2711 5.46169 35.8487Z" fill="#FF5196"/>
<path d="M11.1205 31.5912V33.7366H13.5234V34.3591H11.1205V36.549H13.7928V37.2049H10.3008V30.9354H13.7928V31.5912H11.1205Z" fill="#FF5196"/>
<path d="M20.8879 36.4046C20.742 36.6602 20.5286 36.8714 20.2367 37.0271C19.9447 37.1827 19.5854 37.2716 19.1475 37.2716C18.7321 37.2716 18.3503 37.1938 18.0247 37.0493C17.699 36.8937 17.4408 36.6936 17.2387 36.4268C17.0478 36.16 16.9355 35.8599 16.9018 35.5264H17.7776C17.8001 35.7042 17.8562 35.8821 17.9573 36.0488C18.0584 36.2156 18.2155 36.3601 18.4064 36.4713C18.5973 36.5824 18.8331 36.638 19.1138 36.638C19.4731 36.638 19.7539 36.5491 19.9447 36.349C20.1356 36.1489 20.2367 35.9154 20.2367 35.6153C20.2367 35.3596 20.1693 35.1484 20.0346 34.9928C19.8998 34.8372 19.7314 34.7038 19.5405 34.6149C19.3496 34.5259 19.0689 34.4259 18.7321 34.3147C18.3278 34.1813 18.0135 34.0591 17.7664 33.9479C17.5194 33.8367 17.3173 33.6589 17.1489 33.4254C16.9804 33.192 16.8906 32.8919 16.8906 32.5139C16.8906 32.1916 16.9692 31.9025 17.1264 31.6469C17.2836 31.4023 17.5082 31.2022 17.8113 31.0688C18.1033 30.9354 18.4626 30.8687 18.8556 30.8687C19.4732 30.8687 19.9784 31.0133 20.3377 31.3134C20.7082 31.6135 20.9104 31.9915 20.9777 32.4583H20.1019C20.057 32.2138 19.9223 31.9915 19.7202 31.8025C19.5068 31.6135 19.2261 31.5135 18.8668 31.5135C18.5412 31.5135 18.2717 31.6024 18.0808 31.7691C17.8787 31.9359 17.7889 32.1804 17.7889 32.4806C17.7889 32.7251 17.8563 32.9252 17.9798 33.0697C18.1145 33.2254 18.2717 33.3365 18.4626 33.4254C18.6535 33.5144 18.9229 33.6033 19.2486 33.7145C19.6528 33.8479 19.9784 33.9701 20.2367 34.0924C20.4837 34.2147 20.697 34.3925 20.8654 34.626C21.0339 34.8594 21.1237 35.1818 21.1237 35.582C21.1013 35.871 21.0339 36.1489 20.8879 36.4046Z" fill="#FF5196"/>
<path d="M25.2689 30.9354V37.2049H24.4492V30.9354H25.2689Z" fill="#FF5196"/>
<path d="M33.5562 31.4135C34.0615 31.7803 34.3983 32.2694 34.5668 32.8919H33.7022C33.5562 32.514 33.298 32.2027 32.9499 31.9804C32.6018 31.747 32.1864 31.6358 31.7036 31.6358C31.2769 31.6358 30.8838 31.7358 30.547 31.9359C30.2101 32.136 29.9407 32.4139 29.7386 32.7808C29.5477 33.1476 29.4466 33.5811 29.4466 34.0813C29.4466 34.5927 29.5477 35.0373 29.7386 35.4042C29.9295 35.771 30.2102 36.06 30.5582 36.2601C30.9063 36.4602 31.3106 36.5602 31.7709 36.5602C32.1639 36.5602 32.512 36.4713 32.8376 36.3157C33.1632 36.1489 33.4215 35.9044 33.6348 35.5931C33.8481 35.2819 33.9604 34.9039 34.0054 34.4815H31.5127V33.8813H34.6903V34.626C34.6341 35.1263 34.4769 35.5709 34.2187 35.9822C33.9604 36.3935 33.6124 36.7047 33.1745 36.9382C32.7366 37.1716 32.2425 37.2939 31.6811 37.2939C31.0747 37.2939 30.5358 37.1605 30.0642 36.8937C29.5926 36.6269 29.2333 36.249 28.975 35.7599C28.7168 35.2819 28.582 34.7261 28.582 34.1036C28.582 33.4811 28.7168 32.9253 28.975 32.4473C29.2333 31.9693 29.6038 31.5802 30.0642 31.3134C30.5245 31.0467 31.0635 30.9021 31.6698 30.9021C32.4334 30.8799 33.051 31.0578 33.5562 31.4135Z" fill="#FF5196"/>
<path d="M42.9761 37.2049H42.1565L38.8665 32.2471V37.2049H38.0469V30.9354H38.8665L42.1565 35.8932V30.9354H42.9761V37.2049Z" fill="#FF5196"/>
<path d="M54.7864 36.4046C54.6404 36.6602 54.427 36.8714 54.1351 37.0271C53.8432 37.1827 53.4839 37.2716 53.046 37.2716C52.6305 37.2716 52.2488 37.1938 51.9231 37.0493C51.5975 36.8937 51.3393 36.6936 51.1371 36.4268C50.9463 36.16 50.834 35.8599 50.8003 35.5264H51.6761C51.6985 35.7042 51.7547 35.8821 51.8558 36.0488C51.9568 36.2156 52.114 36.3601 52.3049 36.4713C52.4957 36.5824 52.7315 36.638 53.0123 36.638C53.3716 36.638 53.6523 36.5491 53.8431 36.349C54.034 36.1489 54.1351 35.9154 54.1351 35.6153C54.1351 35.3596 54.0677 35.1484 53.933 34.9928C53.7983 34.8372 53.6298 34.7038 53.4389 34.6149C53.2481 34.5259 52.9674 34.4259 52.6305 34.3147C52.2263 34.1813 51.9119 34.0591 51.6648 33.9479C51.4178 33.8367 51.2157 33.6589 51.0473 33.4254C50.8789 33.192 50.7891 32.8919 50.7891 32.5139C50.7891 32.1916 50.8676 31.9025 51.0248 31.6469C51.182 31.4023 51.4066 31.2022 51.7098 31.0688C52.0017 30.9354 52.361 30.8687 52.754 30.8687C53.3716 30.8687 53.8769 31.0133 54.2362 31.3134C54.6067 31.6135 54.8088 31.9915 54.8762 32.4583H54.0004C53.9554 32.2138 53.8207 31.9915 53.6186 31.8025C53.4052 31.6135 53.1246 31.5135 52.7653 31.5135C52.4396 31.5135 52.1701 31.6024 51.9793 31.7691C51.7772 31.9359 51.6873 32.1804 51.6873 32.4806C51.6873 32.7251 51.7547 32.9252 51.8782 33.0697C52.0129 33.2254 52.1701 33.3365 52.361 33.4254C52.5519 33.5144 52.8214 33.6033 53.147 33.7145C53.5512 33.8479 53.8768 33.9701 54.1351 34.0924C54.3821 34.2147 54.5955 34.3925 54.7639 34.626C54.9323 34.8594 55.0221 35.1818 55.0221 35.582C54.9997 35.871 54.9323 36.1489 54.7864 36.4046Z" fill="#FF5196"/>
<path d="M62.2336 30.9354V31.5912H60.4483V37.2049H59.6174V31.5912H57.832V30.9354H62.2336Z" fill="#FF5196"/>
<path d="M66.0511 30.9353V34.6926C66.0511 35.304 66.1858 35.7597 66.4665 36.0599C66.7472 36.3489 67.1178 36.5045 67.6118 36.5045C68.0947 36.5045 68.4652 36.36 68.7347 36.0599C69.0042 35.7597 69.1389 35.3151 69.1389 34.7037V30.9464H69.9586V34.7037C69.9586 35.5596 69.7452 36.2044 69.3186 36.6268C68.8919 37.0603 68.3192 37.2715 67.6006 37.2715C66.8932 37.2715 66.3206 37.0603 65.8939 36.6268C65.4673 36.1932 65.2539 35.5596 65.2539 34.7037V30.9464H66.0511V30.9353Z" fill="#FF5196"/>
<path d="M78.4131 35.7264C78.1548 36.1933 77.7731 36.5601 77.279 36.8158C76.7737 37.0715 76.1787 37.2049 75.4825 37.2049H73.4727V30.9354H75.4825C76.1787 30.9354 76.785 31.0577 77.279 31.3133C77.7731 31.569 78.1548 31.9247 78.4131 32.4027C78.6714 32.8807 78.7949 33.4254 78.7949 34.0701C78.7949 34.7037 78.6714 35.2595 78.4131 35.7264ZM77.3127 35.8487C77.7506 35.4263 77.964 34.8371 77.964 34.0701C77.964 33.3031 77.7506 32.714 77.3127 32.2915C76.8748 31.8691 76.246 31.6579 75.4151 31.6579H74.2811V36.4823H75.4151C76.2348 36.4823 76.8748 36.2711 77.3127 35.8487Z" fill="#FF5196"/>
<path d="M82.972 30.9354V37.2049H82.1523V30.9354H82.972Z" fill="#FF5196"/>
<path d="M91.0094 31.269C91.481 31.5469 91.8515 31.9248 92.121 32.4139C92.3905 32.9031 92.5252 33.4589 92.5252 34.0702C92.5252 34.6816 92.3905 35.2374 92.121 35.7265C91.8515 36.2156 91.481 36.5936 91.0094 36.8715C90.5378 37.1494 90.01 37.2828 89.4261 37.2828C88.8423 37.2828 88.3033 37.1494 87.8317 36.8715C87.3601 36.5936 86.9784 36.2156 86.7089 35.7265C86.4394 35.2374 86.3047 34.6816 86.3047 34.0702C86.3047 33.4589 86.4394 32.9031 86.7089 32.4139C86.9784 31.9248 87.3489 31.5469 87.8317 31.269C88.3145 30.9911 88.8423 30.8577 89.4261 30.8577C90.01 30.8577 90.5378 30.9911 91.0094 31.269ZM88.2472 31.9137C87.8991 32.1138 87.6296 32.3917 87.4388 32.7697C87.2479 33.1365 87.1468 33.57 87.1468 34.0702C87.1468 34.5594 87.2479 34.9929 87.4388 35.3708C87.6296 35.7488 87.8991 36.0267 88.2472 36.2268C88.5953 36.4269 88.977 36.5269 89.4149 36.5269C89.8416 36.5269 90.2346 36.4269 90.5827 36.2268C90.9308 36.0267 91.2002 35.7377 91.3911 35.3708C91.582 35.004 91.6831 34.5705 91.6831 34.0814C91.6831 33.5811 91.582 33.1476 91.3911 32.7808C91.2002 32.4139 90.9308 32.1249 90.5827 31.9248C90.2346 31.7248 89.8528 31.6247 89.4149 31.6247C88.9882 31.6136 88.5953 31.7136 88.2472 31.9137Z" fill="#FF5196"/>
</svg>
