<svg width="127" height="49" viewBox="0 0 127 49" fill="none" xmlns="http://www.w3.org/2000/svg">
<path d="M9.32753 13.5861C9.2342 13.3621 9.1082 13.0775 8.94953 12.7321C8.8002 12.3868 8.63686 12.0135 8.45953 11.6121C8.2822 11.2108 8.09086 10.8001 7.88553 10.3801C7.68953 9.9508 7.50286 9.54946 7.32553 9.17613C7.1482 8.79346 6.9802 8.4528 6.82153 8.15413C6.6722 7.85546 6.55086 7.6268 6.45753 7.46813C6.35486 8.56946 6.27086 9.76413 6.20553 11.0521C6.1402 12.3308 6.0842 13.6235 6.03753 14.9301H4.70753C4.74486 14.0901 4.78686 13.2455 4.83353 12.3961C4.8802 11.5375 4.93153 10.6975 4.98753 9.87613C5.05286 9.04546 5.1182 8.23813 5.18353 7.45413C5.2582 6.67013 5.33753 5.92813 5.42153 5.22813H6.61153C6.86353 5.6388 7.1342 6.12413 7.42353 6.68413C7.71286 7.24413 8.0022 7.83213 8.29153 8.44813C8.58086 9.0548 8.86086 9.66613 9.13153 10.2821C9.4022 10.8888 9.64953 11.4441 9.87353 11.9481C10.0975 11.4441 10.3449 10.8888 10.6155 10.2821C10.8862 9.66613 11.1662 9.0548 11.4555 8.44813C11.7449 7.83213 12.0342 7.24413 12.3235 6.68413C12.6129 6.12413 12.8835 5.6388 13.1355 5.22813H14.3255C14.6429 8.3548 14.8809 11.5888 15.0395 14.9301H13.7095C13.6629 13.6235 13.6069 12.3308 13.5415 11.0521C13.4762 9.76413 13.3922 8.56946 13.2895 7.46813C13.1962 7.6268 13.0702 7.85546 12.9115 8.15413C12.7622 8.4528 12.5989 8.79346 12.4215 9.17613C12.2442 9.54946 12.0529 9.9508 11.8475 10.3801C11.6515 10.8001 11.4649 11.2108 11.2875 11.6121C11.1102 12.0135 10.9422 12.3868 10.7835 12.7321C10.6342 13.0775 10.5129 13.3621 10.4195 13.5861H9.32753ZM23.5108 11.2901C23.5108 11.8688 23.4268 12.3915 23.2588 12.8581C23.0908 13.3248 22.8528 13.7261 22.5448 14.0621C22.2462 14.3981 21.8868 14.6595 21.4668 14.8461C21.0468 15.0235 20.5895 15.1121 20.0948 15.1121C19.6002 15.1121 19.1428 15.0235 18.7228 14.8461C18.3028 14.6595 17.9388 14.3981 17.6308 14.0621C17.3322 13.7261 17.0988 13.3248 16.9308 12.8581C16.7628 12.3915 16.6788 11.8688 16.6788 11.2901C16.6788 10.7208 16.7628 10.2028 16.9308 9.73613C17.0988 9.26013 17.3322 8.85413 17.6308 8.51813C17.9388 8.18213 18.3028 7.92546 18.7228 7.74813C19.1428 7.56146 19.6002 7.46813 20.0948 7.46813C20.5895 7.46813 21.0468 7.56146 21.4668 7.74813C21.8868 7.92546 22.2462 8.18213 22.5448 8.51813C22.8528 8.85413 23.0908 9.26013 23.2588 9.73613C23.4268 10.2028 23.5108 10.7208 23.5108 11.2901ZM22.1528 11.2901C22.1528 10.4688 21.9662 9.82013 21.5928 9.34413C21.2288 8.8588 20.7295 8.61613 20.0948 8.61613C19.4602 8.61613 18.9562 8.8588 18.5828 9.34413C18.2188 9.82013 18.0368 10.4688 18.0368 11.2901C18.0368 12.1115 18.2188 12.7648 18.5828 13.2501C18.9562 13.7261 19.4602 13.9641 20.0948 13.9641C20.7295 13.9641 21.2288 13.7261 21.5928 13.2501C21.9662 12.7648 22.1528 12.1115 22.1528 11.2901ZM30.0467 9.19013C29.888 9.05946 29.6593 8.93346 29.3607 8.81213C29.062 8.6908 28.7353 8.63013 28.3807 8.63013C28.0073 8.63013 27.6853 8.70013 27.4147 8.84013C27.1533 8.9708 26.9387 9.15746 26.7707 9.40013C26.6027 9.63346 26.4813 9.91346 26.4067 10.2401C26.332 10.5668 26.2947 10.9168 26.2947 11.2901C26.2947 12.1395 26.5047 12.7975 26.9247 13.2641C27.3447 13.7215 27.9047 13.9501 28.6047 13.9501C28.9593 13.9501 29.2533 13.9361 29.4867 13.9081C29.7293 13.8708 29.916 13.8335 30.0467 13.7961V9.19013ZM30.0467 4.29013L31.3487 4.06613V14.7201C31.05 14.8041 30.6673 14.8881 30.2007 14.9721C29.734 15.0561 29.1973 15.0981 28.5907 15.0981C28.0307 15.0981 27.5267 15.0095 27.0787 14.8321C26.6307 14.6548 26.248 14.4028 25.9307 14.0761C25.6133 13.7495 25.366 13.3528 25.1887 12.8861C25.0207 12.4101 24.9367 11.8781 24.9367 11.2901C24.9367 10.7301 25.0067 10.2168 25.1467 9.75013C25.296 9.28346 25.5107 8.88213 25.7907 8.54613C26.0707 8.21013 26.4113 7.9488 26.8127 7.76213C27.2233 7.57546 27.69 7.48213 28.2127 7.48213C28.6327 7.48213 29.0013 7.53813 29.3187 7.65013C29.6453 7.76213 29.888 7.86946 30.0467 7.97213V4.29013ZM33.1808 11.3041C33.1808 10.6601 33.2741 10.1001 33.4608 9.62413C33.6475 9.1388 33.8948 8.73746 34.2028 8.42013C34.5108 8.1028 34.8655 7.8648 35.2668 7.70613C35.6681 7.54746 36.0788 7.46813 36.4988 7.46813C37.4788 7.46813 38.2301 7.77613 38.7528 8.39213C39.2755 8.9988 39.5368 9.92746 39.5368 11.1781C39.5368 11.2341 39.5368 11.3088 39.5368 11.4021C39.5368 11.4861 39.5321 11.5655 39.5228 11.6401H34.5388C34.5948 12.3961 34.8141 12.9701 35.1968 13.3621C35.5795 13.7541 36.1768 13.9501 36.9888 13.9501C37.4461 13.9501 37.8288 13.9128 38.1368 13.8381C38.4541 13.7541 38.6921 13.6748 38.8508 13.6001L39.0328 14.6921C38.8741 14.7761 38.5941 14.8648 38.1928 14.9581C37.8008 15.0515 37.3528 15.0981 36.8488 15.0981C36.2141 15.0981 35.6635 15.0048 35.1968 14.8181C34.7395 14.6221 34.3615 14.3561 34.0628 14.0201C33.7641 13.6841 33.5401 13.2875 33.3908 12.8301C33.2508 12.3635 33.1808 11.8548 33.1808 11.3041ZM38.1788 10.5901C38.1881 10.0021 38.0388 9.52146 37.7308 9.14813C37.4321 8.76546 37.0168 8.57413 36.4848 8.57413C36.1861 8.57413 35.9201 8.6348 35.6868 8.75613C35.4628 8.86813 35.2715 9.01746 35.1128 9.20413C34.9541 9.3908 34.8281 9.60546 34.7348 9.84813C34.6508 10.0908 34.5948 10.3381 34.5668 10.5901H38.1788ZM44.0951 7.49613C44.2071 7.49613 44.3331 7.50546 44.4731 7.52413C44.6224 7.53346 44.7671 7.55213 44.9071 7.58013C45.0471 7.5988 45.1731 7.62213 45.2851 7.65013C45.4064 7.6688 45.4951 7.68746 45.5511 7.70613L45.3271 8.84013C45.2244 8.8028 45.0518 8.7608 44.8091 8.71413C44.5758 8.65813 44.2724 8.63013 43.8991 8.63013C43.6564 8.63013 43.4138 8.65813 43.1711 8.71413C42.9378 8.7608 42.7838 8.79346 42.7091 8.81213V14.9301H41.4071V7.95813C41.7151 7.84613 42.0978 7.74346 42.5551 7.65013C43.0124 7.54746 43.5258 7.49613 44.0951 7.49613ZM46.8075 7.86013C47.1062 7.78546 47.5028 7.70613 47.9975 7.62213C48.4922 7.53813 49.0615 7.49613 49.7055 7.49613C50.2842 7.49613 50.7648 7.58013 51.1475 7.74813C51.5302 7.9068 51.8335 8.13546 52.0575 8.43413C52.2908 8.72346 52.4542 9.07346 52.5475 9.48413C52.6408 9.8948 52.6875 10.3475 52.6875 10.8421V14.9301H51.3855V11.1221C51.3855 10.6741 51.3528 10.2915 51.2875 9.97413C51.2315 9.6568 51.1335 9.40013 50.9935 9.20413C50.8535 9.00813 50.6668 8.86813 50.4335 8.78413C50.2002 8.6908 49.9108 8.64413 49.5655 8.64413C49.4255 8.64413 49.2808 8.6488 49.1315 8.65813C48.9822 8.66746 48.8375 8.68146 48.6975 8.70013C48.5668 8.70946 48.4455 8.72346 48.3335 8.74213C48.2308 8.7608 48.1562 8.7748 48.1095 8.78413V14.9301H46.8075V7.86013Z" fill="#263238"/>
<path d="M12.6495 41.3501C9.26953 41.3501 6.68953 40.4101 4.90953 38.5301C3.14953 36.6501 2.26953 33.9801 2.26953 30.5201C2.26953 28.8001 2.53953 27.2701 3.07953 25.9301C3.61953 24.5701 4.35953 23.4301 5.29953 22.5101C6.23953 21.5701 7.35953 20.8601 8.65953 20.3801C9.95953 19.9001 11.3695 19.6601 12.8895 19.6601C13.7695 19.6601 14.5695 19.7301 15.2895 19.8701C16.0095 19.9901 16.6395 20.1401 17.1795 20.3201C17.7195 20.4801 18.1695 20.6501 18.5295 20.8301C18.8895 21.0101 19.1495 21.1501 19.3095 21.2501L17.9595 25.0301C17.3195 24.6901 16.5695 24.4001 15.7095 24.1601C14.8695 23.9201 13.9095 23.8001 12.8295 23.8001C12.1095 23.8001 11.3995 23.9201 10.6995 24.1601C10.0195 24.4001 9.40953 24.7901 8.86953 25.3301C8.34953 25.8501 7.92953 26.5301 7.60953 27.3701C7.28953 28.2101 7.12953 29.2301 7.12953 30.4301C7.12953 31.3901 7.22953 32.2901 7.42953 33.1301C7.64953 33.9501 7.98953 34.6601 8.44953 35.2601C8.92953 35.8601 9.54953 36.3401 10.3095 36.7001C11.0695 37.0401 11.9895 37.2101 13.0695 37.2101C13.7495 37.2101 14.3595 37.1701 14.8995 37.0901C15.4395 37.0101 15.9195 36.9201 16.3395 36.8201C16.7595 36.7001 17.1295 36.5701 17.4495 36.4301C17.7695 36.2901 18.0595 36.1601 18.3195 36.0401L19.6095 39.7901C18.9495 40.1901 18.0195 40.5501 16.8195 40.8701C15.6195 41.1901 14.2295 41.3501 12.6495 41.3501ZM31.8327 29.1101C31.4327 29.0101 30.9627 28.9101 30.4227 28.8101C29.8827 28.6901 29.3027 28.6301 28.6827 28.6301C28.4027 28.6301 28.0627 28.6601 27.6627 28.7201C27.2827 28.7601 26.9927 28.8101 26.7927 28.8701V40.9301H22.3227V25.9901C23.1227 25.7101 24.0627 25.4501 25.1427 25.2101C26.2427 24.9501 27.4627 24.8201 28.8027 24.8201C29.0427 24.8201 29.3327 24.8401 29.6727 24.8801C30.0127 24.9001 30.3527 24.9401 30.6927 25.0001C31.0327 25.0401 31.3727 25.1001 31.7127 25.1801C32.0527 25.2401 32.3427 25.3201 32.5827 25.4201L31.8327 29.1101ZM49.9264 25.1501C49.0264 28.1901 48.0864 31.0401 47.1064 33.7001C46.1264 36.3601 45.0564 38.9401 43.8964 41.4401C43.4764 42.3401 43.0564 43.1001 42.6364 43.7201C42.2164 44.3601 41.7564 44.8801 41.2564 45.2801C40.7564 45.7001 40.1864 46.0001 39.5464 46.1801C38.9264 46.3801 38.1964 46.4801 37.3564 46.4801C36.6564 46.4801 36.0064 46.4101 35.4064 46.2701C34.8264 46.1501 34.3464 46.0101 33.9664 45.8501L34.7464 42.2801C35.2064 42.4401 35.6164 42.5501 35.9764 42.6101C36.3364 42.6701 36.7164 42.7001 37.1164 42.7001C37.9164 42.7001 38.5264 42.4801 38.9464 42.0401C39.3864 41.6201 39.7564 41.0301 40.0564 40.2701C39.0364 38.2701 38.0164 36.0301 36.9964 33.5501C35.9764 31.0501 35.0164 28.2501 34.1164 25.1501H38.8564C39.0564 25.9301 39.2864 26.7801 39.5464 27.7001C39.8264 28.6001 40.1164 29.5201 40.4164 30.4601C40.7164 31.3801 41.0164 32.2801 41.3164 33.1601C41.6364 34.0401 41.9364 34.8401 42.2164 35.5601C42.4764 34.8401 42.7464 34.0401 43.0264 33.1601C43.3064 32.2801 43.5764 31.3801 43.8364 30.4601C44.1164 29.5201 44.3764 28.6001 44.6164 27.7001C44.8764 26.7801 45.1064 25.9301 45.3064 25.1501H49.9264ZM62.4327 33.1601C62.4327 31.7801 62.1227 30.6801 61.5027 29.8601C60.8827 29.0201 59.9627 28.6001 58.7427 28.6001C58.3427 28.6001 57.9727 28.6201 57.6327 28.6601C57.2927 28.6801 57.0127 28.7101 56.7927 28.7501V36.8201C57.0727 37.0001 57.4327 37.1501 57.8727 37.2701C58.3327 37.3901 58.7927 37.4501 59.2527 37.4501C61.3727 37.4501 62.4327 36.0201 62.4327 33.1601ZM66.9927 33.0401C66.9927 34.2601 66.8427 35.3701 66.5427 36.3701C66.2427 37.3701 65.8027 38.2301 65.2227 38.9501C64.6427 39.6701 63.9227 40.2301 63.0627 40.6301C62.2027 41.0301 61.2127 41.2301 60.0927 41.2301C59.4727 41.2301 58.8927 41.1701 58.3527 41.0501C57.8127 40.9301 57.2927 40.7601 56.7927 40.5401V46.4801H52.3227V25.6901C52.7227 25.5701 53.1827 25.4601 53.7027 25.3601C54.2227 25.2401 54.7627 25.1401 55.3227 25.0601C55.9027 24.9801 56.4827 24.9201 57.0627 24.8801C57.6627 24.8201 58.2327 24.7901 58.7727 24.7901C60.0727 24.7901 61.2327 24.9901 62.2527 25.3901C63.2727 25.7701 64.1327 26.3201 64.8327 27.0401C65.5327 27.7401 66.0627 28.6001 66.4227 29.6201C66.8027 30.6401 66.9927 31.7801 66.9927 33.0401ZM70.2781 21.2201L74.7481 20.5001V25.1501H80.1181V28.8701H74.7481V34.4201C74.7481 35.3601 74.9081 36.1101 75.2281 36.6701C75.5681 37.2301 76.2381 37.5101 77.2381 37.5101C77.7181 37.5101 78.2081 37.4701 78.7081 37.3901C79.2281 37.2901 79.6981 37.1601 80.1181 37.0001L80.7481 40.4801C80.2081 40.7001 79.6081 40.8901 78.9481 41.0501C78.2881 41.2101 77.4781 41.2901 76.5181 41.2901C75.2981 41.2901 74.2881 41.1301 73.4881 40.8101C72.6881 40.4701 72.0481 40.0101 71.5681 39.4301C71.0881 38.8301 70.7481 38.1101 70.5481 37.2701C70.3681 36.4301 70.2781 35.5001 70.2781 34.4801V21.2201ZM97.9323 33.0101C97.9323 34.2501 97.7523 35.3901 97.3923 36.4301C97.0323 37.4501 96.5123 38.3301 95.8323 39.0701C95.1523 39.7901 94.3323 40.3501 93.3723 40.7501C92.4323 41.1501 91.3723 41.3501 90.1923 41.3501C89.0323 41.3501 87.9723 41.1501 87.0123 40.7501C86.0723 40.3501 85.2623 39.7901 84.5823 39.0701C83.9023 38.3301 83.3723 37.4501 82.9923 36.4301C82.6123 35.3901 82.4223 34.2501 82.4223 33.0101C82.4223 31.7701 82.6123 30.6401 82.9923 29.6201C83.3923 28.6001 83.9323 27.7301 84.6123 27.0101C85.3123 26.2901 86.1323 25.7301 87.0723 25.3301C88.0323 24.9301 89.0723 24.7301 90.1923 24.7301C91.3323 24.7301 92.3723 24.9301 93.3123 25.3301C94.2723 25.7301 95.0923 26.2901 95.7723 27.0101C96.4523 27.7301 96.9823 28.6001 97.3623 29.6201C97.7423 30.6401 97.9323 31.7701 97.9323 33.0101ZM93.3723 33.0101C93.3723 31.6301 93.0923 30.5501 92.5323 29.7701C91.9923 28.9701 91.2123 28.5701 90.1923 28.5701C89.1723 28.5701 88.3823 28.9701 87.8223 29.7701C87.2623 30.5501 86.9823 31.6301 86.9823 33.0101C86.9823 34.3901 87.2623 35.4901 87.8223 36.3101C88.3823 37.1101 89.1723 37.5101 90.1923 37.5101C91.2123 37.5101 91.9923 37.1101 92.5323 36.3101C93.0923 35.4901 93.3723 34.3901 93.3723 33.0101Z" fill="#263238"/>
<path d="M114.77 43.9301V30.9866L104.77 21.9301V43.9301H114.77Z" fill="#27CAEA"/>
<path d="M126.723 43.6163V30.8575L117.066 21.9301V43.6163H126.723Z" fill="#FFB04E"/>
</svg>
