<svg width="149" height="50" viewBox="0 0 149 50" fill="none" xmlns="http://www.w3.org/2000/svg">
<path d="M148.296 8.33335C145.792 7.27732 143.243 6.45473 140.66 5.81C138.089 5.13191 135.484 4.65392 132.868 4.32044C131.565 4.12035 130.24 4.07589 128.938 3.92026C127.624 3.88691 126.322 3.75352 125.008 3.8091C124.357 3.82022 123.694 3.82022 123.043 3.8091C122.392 3.8091 121.729 3.8758 121.078 3.89803C120.427 3.94249 119.764 3.95361 119.113 4.02031L117.159 4.25374C114.543 4.46495 112.006 4.99852 109.468 5.65437C106.897 6.26576 104.46 7.13281 101.866 7.99987C99.2052 8.87804 96.3196 9.41161 93.4226 9.01143C91.9966 8.77799 90.5594 8.27777 89.4253 7.38848C88.2688 6.51031 87.4828 5.30977 87 4.05365C87.7972 5.15415 88.7853 6.05455 89.9194 6.61035C91.0534 7.16616 92.2998 7.3996 93.5461 7.38848C96.0613 7.38848 98.554 6.58812 100.912 5.58767C103.315 4.45383 105.953 3.45339 108.581 2.6308C111.231 1.84155 113.993 1.24128 116.755 0.952265C122.268 0.374229 127.905 0.507621 133.306 1.77486C136.012 2.34178 138.651 3.20883 141.177 4.27598C143.715 5.36535 146.162 6.63259 148.296 8.33335Z" fill="#FEBA66"/>
<path d="M0 40.9601C2.95306 42.1828 5.96226 43.1277 9.02761 43.8503C12.0705 44.6061 15.1695 45.1397 18.2686 45.4732C19.8181 45.6844 21.3788 45.7066 22.9171 45.8511C24.4779 45.8623 26.0274 45.9845 27.5769 45.8956L29.9012 45.84C30.6759 45.8289 31.4507 45.7289 32.2254 45.6844C33.0002 45.6177 33.7749 45.5844 34.5385 45.4843L36.8403 45.162C39.9281 44.8285 42.9261 44.117 45.9128 43.2611C48.9333 42.4385 51.7853 41.3491 54.8057 40.2153C57.8935 39.0926 61.2396 38.3589 64.6305 38.7146C66.3036 38.9258 67.9878 39.4594 69.3577 40.4376C70.7388 41.4047 71.7269 42.7831 72.3556 44.2282C71.4125 42.9387 70.2335 41.8827 68.8748 41.2269C67.5162 40.571 66.0228 40.3042 64.5407 40.3487C61.5427 40.3932 58.5896 41.3825 55.8162 42.6275C52.9979 44.0059 49.9438 45.2509 46.8672 46.2847C43.7682 47.274 40.5681 48.0633 37.3231 48.4634C30.8668 49.3083 24.2533 49.3194 17.8756 48.041C14.6755 47.463 11.554 46.5626 8.53355 45.4176C5.53558 44.2282 2.60498 42.8387 0 40.9601Z" fill="#FEBA66"/>
<path d="M3.42 30.6242L1.2 28.4042V18.1042L3.42 15.8842H10.38L12.4 17.9042L10.82 19.5042L9.36 18.0842H4.58L3.7 18.9642L3.72 27.5442L4.58 28.4242H9.54L11 26.9842L12.58 28.6042L10.56 30.6242H3.42ZM16.6083 30.6242L14.3883 28.4042V20.1642H16.8083V27.8242L17.6483 28.7442H19.6683L21.7883 26.6642V20.1642H24.2083V30.6242H21.7883V29.1242L20.2683 30.6242H16.6083ZM27.2031 30.6242V20.1642H29.6231V22.0242L31.5031 20.1642H33.8631V22.5842H31.5231L29.6231 24.4842V30.6242H27.2031ZM35.5625 30.6242V20.1642H37.9825V22.0242L39.8625 20.1642H42.2225V22.5842H39.8825L37.9825 24.4842V30.6242H35.5625ZM45.727 30.6242L43.507 28.4042V22.4042L45.727 20.1642H50.527L52.747 22.4042V26.2842H45.927V27.7642L46.807 28.6442H52.567V30.6242H45.727ZM45.927 24.4242H50.327V22.9242L49.447 22.0442H46.807L45.927 22.9242V24.4242ZM55.543 30.6242V20.1642H57.963V22.0242L59.843 20.1642H63.583L65.803 22.4042V30.6242H63.383V22.9642L62.543 22.0442H60.423L57.963 24.4842V30.6242H55.543ZM70.727 30.6242L68.507 28.4042V22.4042L70.727 20.1642H75.727L77.727 22.1242V24.0842H75.307V22.9242L74.427 22.0442H71.807L70.927 22.9242V27.7642L71.807 28.6442H77.647V30.6242H70.727ZM81.6208 34.3642L83.4608 30.0242H82.5408L78.5008 20.1642H81.1608L83.9608 27.6442H84.4408L87.2408 20.1642H89.9008L84.0608 34.3642H81.6208ZM98.4238 30.6242L95.0438 15.8842H97.7038L100.064 28.2442H100.544L102.904 15.8842H105.144L107.504 28.2442H107.984L110.344 15.8842H113.004L109.604 30.6242H105.824L104.024 21.3242L102.224 30.6242H98.4238ZM115.359 30.6242L113.139 28.4042V26.1442L115.359 23.9042H120.419V23.0242L119.539 22.1442H114.519V20.1642H120.619L122.839 22.4042V30.6242H120.419V29.1042L118.879 30.6242H115.359ZM116.439 28.7642L118.319 28.7442L120.419 26.6442V25.7842H116.439L115.559 26.6642V27.8642L116.439 28.7642ZM128.41 30.6242L123.93 20.1642H126.59L129.61 28.2442H130.09L133.11 20.1642H135.77L131.27 30.6242H128.41ZM138.989 30.6242L136.769 28.4042V22.4042L138.989 20.1642H143.789L146.009 22.4042V26.2842H139.189V27.7642L140.069 28.6442H145.829V30.6242H138.989ZM139.189 24.4242H143.589V22.9242L142.709 22.0442H140.069L139.189 22.9242V24.4242Z" fill="#263238"/>
</svg>
