<svg width="81" height="80" viewBox="0 0 81 80" fill="none" xmlns="http://www.w3.org/2000/svg">
<g style="mix-blend-mode:multiply">
<path d="M40.2436 79.1244C62.1588 79.1244 79.9246 61.5363 79.9246 39.8402C79.9246 18.1441 62.1588 0.555908 40.2436 0.555908C18.3283 0.555908 0.5625 18.1441 0.5625 39.8402C0.5625 61.5363 18.3283 79.1244 40.2436 79.1244Z" fill="white"/>
<path d="M40.2425 79.6801C18.0552 79.6801 0 61.8055 0 39.8401C0 17.8747 18.0552 0 40.2425 0C62.4298 0 80.485 17.8747 80.485 39.8401C80.485 61.8055 62.4298 79.6801 40.2425 79.6801ZM40.2425 1.11161C18.6728 1.11161 1.12284 18.4861 1.12284 39.8401C1.12284 61.1941 18.6728 78.5685 40.2425 78.5685C61.8122 78.5685 79.3621 61.1941 79.3621 39.8401C79.3621 18.4861 61.8122 1.11161 40.2425 1.11161Z" fill="#263238"/>
<path d="M45.9014 4.54647C46.1709 4.5687 46.4066 4.57981 46.5975 4.57981L46.5751 4.75767C46.2607 4.80214 45.9912 5.03557 45.7779 5.48022L43.1055 10.7715L43.0269 10.7604L42.9595 10.7492L41.2641 4.8466C41.1518 4.45754 40.9609 4.24633 40.6914 4.21298L40.7139 4.03513C40.9609 4.07959 41.2865 4.11294 41.6907 4.1574C42.2185 4.20187 42.6115 4.23522 42.8697 4.23522L42.8473 4.41307C42.6115 4.40196 42.443 4.41307 42.342 4.44642C42.2409 4.47977 42.1848 4.5687 42.1736 4.67986C42.1623 4.7799 42.1848 4.92441 42.2409 5.11339L43.4873 9.62652L45.34 5.93598C45.4971 5.63584 45.5757 5.39129 45.5982 5.21343C45.6207 5.02446 45.5645 4.87995 45.441 4.7799C45.3175 4.67986 45.1154 4.62428 44.8459 4.59093L44.8684 4.41307C45.194 4.46865 45.5421 4.51312 45.9014 4.54647Z" fill="#263238"/>
<path d="M53.449 6.89198C53.3367 6.89198 53.2469 6.93644 53.1795 7.02537C53.1121 7.1143 53.0335 7.25881 52.9549 7.47002L51.3493 11.6941C51.2707 11.9053 51.2258 12.0721 51.2258 12.1832C51.2258 12.2944 51.2594 12.3833 51.338 12.45C51.4166 12.5167 51.5626 12.5945 51.7647 12.6835L51.6973 12.8502C51.4391 12.739 51.0798 12.5945 50.6194 12.4167C50.1254 12.2277 49.7548 12.1054 49.5078 12.0276L49.5752 11.8609C49.7885 11.9276 49.9457 11.9609 50.0468 11.9609C50.1478 11.9609 50.2489 11.9165 50.3163 11.8275C50.3836 11.7386 50.4622 11.5941 50.5408 11.3829L52.1465 7.15877C52.2251 6.94756 52.27 6.78082 52.27 6.66966C52.27 6.5585 52.2363 6.46957 52.1577 6.40287C52.0791 6.33618 51.9331 6.25836 51.731 6.16943L51.7984 6.00269C52.0342 6.10274 52.3935 6.24725 52.8876 6.43622C53.3479 6.61408 53.7185 6.73636 53.9879 6.81417L53.9206 6.98091C53.7185 6.91421 53.5613 6.88086 53.449 6.89198Z" fill="#263238"/>
<path d="M63.4409 12.7723C63.3286 12.7501 63.2163 12.7835 63.1153 12.8501C63.0142 12.9168 62.8907 13.0502 62.756 13.2392L59.4997 17.6078L59.3313 17.4856L59.7692 10.4602L56.8835 14.3286C56.7488 14.5176 56.659 14.6732 56.614 14.7955C56.5691 14.9177 56.5916 15.0289 56.6477 15.1401C56.7039 15.2512 56.8386 15.3735 57.0295 15.5291L56.9172 15.6736C56.7488 15.5291 56.5018 15.3402 56.1761 15.0956C55.8842 14.8844 55.6484 14.7177 55.4688 14.6176L55.581 14.4731C55.7607 14.5954 55.9067 14.6621 56.0189 14.6732C56.1312 14.6954 56.2435 14.6621 56.3446 14.5954C56.4456 14.5176 56.5691 14.3953 56.7039 14.2063L59.3538 10.6492C59.4885 10.4602 59.5783 10.3157 59.612 10.2156C59.6457 10.1156 59.6345 10.0155 59.5783 9.92662C59.5222 9.83769 59.4099 9.72653 59.2303 9.58202L59.3425 9.43751C59.4885 9.5709 59.7131 9.74876 60.0162 9.95996C60.2408 10.1267 60.4317 10.2601 60.6113 10.3601L60.252 16.2517L62.5875 13.1169C62.7223 12.928 62.8233 12.7723 62.857 12.6501C62.8907 12.5278 62.8795 12.4166 62.8233 12.3055C62.7672 12.1943 62.6325 12.0609 62.4416 11.9164L62.5539 11.7719C62.7223 11.9164 62.9693 12.1054 63.2949 12.3499C63.5869 12.5611 63.8227 12.7279 64.0023 12.8279L63.89 12.9724C63.6991 12.8613 63.5532 12.7835 63.4409 12.7723Z" fill="#263238"/>
<path d="M67.2034 17.7857C67.4954 17.5745 67.7985 17.3411 68.1241 17.052C68.4049 17.4745 68.8989 18.1748 69.6063 19.1641C70.3137 20.1423 70.819 20.8315 71.1221 21.2317C70.7404 21.454 70.4147 21.6541 70.1228 21.8542C69.8758 22.0321 69.6737 22.1877 69.5277 22.31L69.4042 22.1432C69.7635 21.832 70.0105 21.5763 70.1565 21.3873C70.3024 21.1983 70.3586 20.9983 70.3474 20.7871C70.3361 20.5758 70.2014 20.3202 69.9881 20.0089L69.6961 19.6087L65.4406 22.6101C65.2385 22.7546 65.0925 22.888 65.0251 22.988C64.9577 23.0881 64.9353 23.2104 64.9802 23.3438C65.0139 23.466 65.1149 23.6439 65.2609 23.8662L65.1149 23.9774C64.9465 23.7106 64.6883 23.3326 64.3514 22.8769C63.9921 22.3767 63.7226 22.0209 63.543 21.7986L63.6889 21.6875C63.8574 21.8987 63.9921 22.0432 64.1044 22.121C64.2167 22.1988 64.329 22.221 64.4525 22.1877C64.576 22.1543 64.7444 22.0654 64.9465 21.9209L69.2021 18.9196L68.9101 18.5194C68.6856 18.2081 68.4835 18.0191 68.2926 17.9302C68.1017 17.8413 67.8883 17.8302 67.6638 17.908C67.4392 17.9858 67.1136 18.1303 66.6981 18.3637L66.5746 18.197C66.7431 18.1081 66.9452 17.9747 67.2034 17.7857Z" fill="#263238"/>
<path d="M69.358 33.2149L69.1784 33.2704C69.111 33.0259 69.0212 32.7146 68.8864 32.3367C68.718 31.8476 68.5833 31.4808 68.4822 31.2362L68.6619 31.1806C68.7405 31.3918 68.8303 31.5474 68.8976 31.6253C68.9762 31.7031 69.0773 31.7253 69.1896 31.6808C69.2906 31.6475 69.4142 31.5697 69.5601 31.4474L70.8065 30.4358L70.0991 28.3571L69.0548 28.3127C68.718 28.2904 68.4597 28.3127 68.2801 28.3794C68.1004 28.4461 67.9881 28.5461 67.9432 28.6906C67.9095 28.8351 67.932 29.0463 68.0106 29.302L67.8309 29.3576C67.7411 29.0241 67.6288 28.6906 67.5166 28.3571C67.4267 28.1015 67.3481 27.8903 67.2695 27.7235L67.4492 27.6679C67.6064 27.9347 67.9432 28.0792 68.4373 28.0903L74.4108 28.3571L74.4557 28.4905L69.6949 32.4145C69.4029 32.6924 69.2906 32.9481 69.358 33.2149ZM73.2543 28.4905L70.3124 28.3682L70.9749 30.3247L73.2543 28.4905Z" fill="#263238"/>
<path d="M70.1774 41.7188C70.2896 41.6744 70.3458 41.6188 70.3458 41.541C70.3458 41.4965 70.3346 41.4632 70.3121 41.4298C70.2896 41.3965 70.2447 41.3298 70.1774 41.2408C70.0089 41.0296 69.8854 40.8073 69.7956 40.585C69.7058 40.3627 69.6609 40.107 69.6609 39.8291C69.6496 39.2066 69.7731 38.673 70.0202 38.2173C70.2784 37.7615 70.6377 37.4169 71.1318 37.1723C71.6146 36.9278 72.1985 36.8055 72.8834 36.7944C73.5908 36.7833 74.2083 36.8944 74.7361 37.139C75.2638 37.3836 75.6793 37.717 75.9712 38.1617C76.2631 38.6063 76.4203 39.1065 76.4203 39.6624C76.4203 39.9069 76.3979 40.1292 76.353 40.3182C76.3081 40.5072 76.2407 40.6739 76.1621 40.8184C76.0835 40.9629 75.9824 41.1297 75.8477 41.3075C75.7916 41.3853 75.7579 41.452 75.7579 41.4965C75.7579 41.6077 75.9487 41.6855 76.3193 41.7188V41.93C75.9263 41.9078 75.2189 41.9078 74.2083 41.93V41.7188C74.534 41.6632 74.8035 41.5966 75.0168 41.5299C75.2301 41.4632 75.4098 41.3631 75.567 41.2408C75.7803 41.063 75.96 40.8295 76.0835 40.5405C76.207 40.2515 76.2631 39.9625 76.2631 39.6512C76.2519 39.2511 76.1172 38.9065 75.8477 38.6063C75.5782 38.3062 75.1964 38.0839 74.7136 37.9171C74.2196 37.7615 73.6582 37.6837 73.0069 37.6948C72.2658 37.7059 71.6707 37.7948 71.1991 37.9616C70.7276 38.1283 70.3907 38.3729 70.1661 38.6953C69.9416 39.0176 69.8405 39.4289 69.8517 39.9291C69.863 40.296 69.964 40.6072 70.1549 40.874C70.2335 40.9852 70.3009 41.0519 70.3795 41.0852C70.4468 41.1186 70.5479 41.1297 70.6714 41.1297L71.5585 41.1186C71.8167 41.1186 71.9964 41.0852 72.1199 41.0407C72.2322 40.9963 72.322 40.9074 72.3557 40.774C72.4006 40.6517 72.423 40.4516 72.423 40.1848H72.6027C72.5915 40.4849 72.5802 40.9074 72.5915 41.4743C72.6027 41.8967 72.6139 42.2191 72.6364 42.4191H72.4567C72.4455 42.2746 72.4118 42.1746 72.3781 42.119C72.3444 42.0634 72.2658 42.019 72.1648 41.9967C72.0637 41.9745 71.8953 41.9634 71.6595 41.9745L69.8405 42.0078V41.83C69.9416 41.7855 70.0651 41.7633 70.1774 41.7188Z" fill="#263238"/>
<path d="M68.8406 51.1785C68.515 51.0784 68.1332 50.9784 67.6953 50.8895C67.8413 50.5004 68.0546 49.8445 68.3578 48.9108C68.7171 47.7992 68.9753 46.9544 69.1325 46.3874L69.3122 46.443C69.2561 46.6542 69.2336 46.8098 69.2336 46.921C69.2448 47.0322 69.2897 47.11 69.3796 47.1767C69.4694 47.2434 69.6266 47.3101 69.8399 47.3768L74.1853 48.7329C74.4099 48.7996 74.5671 48.833 74.6794 48.833C74.7916 48.833 74.8815 48.7885 74.9488 48.6996C75.0162 48.6107 75.0836 48.4661 75.1622 48.2661L75.3418 48.3216C75.1397 48.8886 74.8702 49.7223 74.5109 50.8339C74.2415 51.6787 74.0506 52.2901 73.9607 52.6569C73.5902 52.5013 73.2534 52.3679 72.939 52.279C72.7144 52.2123 72.5235 52.1567 72.3888 52.1345L72.4561 51.9344C72.8491 52.0122 73.1523 52.0455 73.3544 52.0455C73.5565 52.0455 73.7249 51.9788 73.8597 51.8454C73.9944 51.7232 74.1067 51.5008 74.2078 51.2007L74.4323 50.4782C74.4997 50.267 74.5334 50.1113 74.5222 50.0113C74.5109 49.9112 74.4772 49.8223 74.3874 49.7556C74.2976 49.6889 74.1516 49.6222 73.9271 49.5555L71.861 48.9108L71.6814 49.4888C71.5916 49.7778 71.614 50.0002 71.76 50.1558C71.906 50.3114 72.0631 50.4226 72.2428 50.5004C72.4225 50.5782 72.5347 50.6338 72.5797 50.656L72.5123 50.8561C72.2316 50.7449 71.9621 50.6449 71.6926 50.5671L71.2772 50.4448C70.9852 50.3559 70.5585 50.2336 70.0196 50.1113L70.087 49.9112C70.1319 49.9224 70.2778 49.9446 70.5249 50.0002C70.7719 50.0446 70.9852 50.0224 71.1536 49.9335C71.3221 49.8445 71.4344 49.6778 71.513 49.4444L71.6926 48.8663L69.5817 48.2105C69.3571 48.1438 69.1999 48.1104 69.0876 48.1104C68.9753 48.1104 68.8855 48.1549 68.8294 48.2438C68.762 48.3328 68.6946 48.4773 68.6273 48.6885L68.4252 49.3221C68.3129 49.6889 68.268 49.9779 68.3129 50.1891C68.3466 50.4115 68.4588 50.5893 68.6497 50.7449C68.8406 50.8895 69.1325 51.0562 69.5255 51.2341L69.4582 51.4341C69.3234 51.3341 69.1101 51.2674 68.8406 51.1785Z" fill="#263238"/>
<path d="M65.6392 64.8181C65.6841 64.718 65.6729 64.618 65.628 64.5179C65.5831 64.4179 65.4708 64.2956 65.3024 64.1289L62.0012 61.0052C61.8328 60.8496 61.6981 60.7496 61.597 60.7051C61.496 60.6606 61.3949 60.6606 61.2938 60.7051C61.1928 60.7496 61.0693 60.8496 60.9121 61.0052L60.7773 60.883C60.9907 60.694 61.2602 60.4161 61.6082 60.0715C61.9675 59.6935 62.237 59.4045 62.4055 59.2156L62.5402 59.3378C62.3942 59.5046 62.3044 59.638 62.2595 59.7269C62.2146 59.8269 62.2258 59.927 62.2707 60.027C62.3156 60.1271 62.4279 60.2493 62.5963 60.4161L65.8975 63.5397C66.0659 63.6953 66.2006 63.7954 66.3017 63.8398C66.4028 63.8843 66.5038 63.8843 66.6049 63.8398C66.7059 63.7954 66.8294 63.6953 66.9866 63.5397L67.1214 63.662C66.9305 63.8287 66.6498 64.1066 66.2905 64.4846C65.9424 64.8403 65.6841 65.1293 65.5045 65.3405L65.3697 65.2182C65.5045 65.0515 65.5943 64.9181 65.6392 64.8181Z" fill="#263238"/>
<path d="M56.289 71.5987C56.3564 71.4987 56.3676 71.3986 56.3451 71.2763C56.3227 71.1541 56.2441 70.9984 56.1206 70.7872L53.3359 66.1073L53.5156 65.9962L59.8709 69.142L57.4118 65.0069C57.2883 64.8068 57.1873 64.6623 57.0862 64.5844C56.9852 64.5066 56.8729 64.4733 56.7494 64.4844C56.6259 64.4955 56.4574 64.5622 56.2441 64.6734L56.143 64.5177C56.3451 64.4288 56.6146 64.2732 56.9627 64.0731C57.2771 63.8841 57.5129 63.7396 57.6813 63.6173L57.7711 63.773C57.5915 63.8841 57.468 63.9953 57.4118 64.0953C57.3445 64.1954 57.3332 64.2954 57.3557 64.4177C57.3782 64.54 57.4567 64.6956 57.5803 64.9068L59.8484 68.7196C59.9607 68.9197 60.0617 69.0531 60.1516 69.1198C60.2414 69.1865 60.3312 69.2199 60.4435 69.1976C60.5446 69.1754 60.7017 69.1198 60.8926 69.0198L60.9825 69.1754C60.8028 69.2643 60.5558 69.3977 60.2302 69.5867C59.9944 69.7201 59.7923 69.8535 59.6238 69.9646L54.2903 67.3301L56.289 70.6872C56.4125 70.8873 56.5136 71.0318 56.6146 71.1096C56.7044 71.1874 56.8167 71.2207 56.9515 71.2096C57.0862 71.1985 57.2546 71.1318 57.468 71.0207L57.5578 71.1763C57.3557 71.2652 57.0862 71.4208 56.7381 71.6209C56.4237 71.8099 56.1879 71.9544 56.0195 72.0767L55.9297 71.9211C56.0981 71.7988 56.2216 71.6876 56.289 71.5987Z" fill="#263238"/>
<path d="M50.1123 73.055C50.1909 73.3996 50.292 73.7775 50.4267 74.1777C49.9214 74.2666 49.0793 74.4445 47.8891 74.689C46.6989 74.9447 45.868 75.1337 45.374 75.2559C45.3178 74.8224 45.2617 74.4445 45.1831 74.0999C45.1157 73.7997 45.0596 73.5552 44.9922 73.3773L45.1943 73.3329C45.3403 73.7886 45.475 74.111 45.5985 74.3222C45.722 74.5334 45.8792 74.6668 46.0813 74.7335C46.2835 74.8002 46.5754 74.7891 46.9459 74.7113L47.4287 74.6112L46.3284 69.5534C46.2722 69.3088 46.2161 69.131 46.1375 69.0309C46.0589 68.9309 45.9691 68.8642 45.8343 68.8531C45.6996 68.8308 45.4975 68.8531 45.228 68.8975L45.1943 68.7197C45.5087 68.6752 45.9578 68.5863 46.5192 68.464C47.1144 68.3306 47.5635 68.2306 47.8442 68.1528L47.8779 68.3306C47.6084 68.3973 47.4287 68.464 47.3165 68.5307C47.2042 68.5974 47.1368 68.6975 47.1143 68.8197C47.0919 68.942 47.1031 69.131 47.1593 69.3755L48.2596 74.4334L48.7425 74.3333C49.113 74.2555 49.3825 74.1443 49.5397 73.9998C49.6969 73.8553 49.7867 73.6663 49.8092 73.4329C49.8316 73.1995 49.8204 72.8438 49.7642 72.3769L49.9664 72.3324C50 72.5103 50.045 72.7548 50.1123 73.055Z" fill="#263238"/>
<path d="M35.2123 69.9313C35.246 69.5867 35.2573 69.1976 35.2573 68.7641C35.6727 68.8197 36.3689 68.8864 37.357 68.9753C38.5247 69.0754 39.4118 69.1532 40.0181 69.1865L40.0069 69.3644C39.7823 69.3533 39.6251 69.3644 39.524 69.3977C39.423 69.4311 39.3444 69.4867 39.2995 69.5867C39.2546 69.6867 39.2209 69.8535 39.1984 70.0758L38.7942 74.5778C38.7717 74.8001 38.783 74.9669 38.8054 75.0781C38.8279 75.1892 38.8952 75.267 38.9963 75.3115C39.0974 75.356 39.2546 75.4004 39.4679 75.4226L39.4567 75.6005C38.8616 75.5338 37.9745 75.4449 36.8068 75.3448C35.9085 75.267 35.2685 75.2226 34.8867 75.2003C34.9653 74.8113 35.0215 74.4556 35.0439 74.1332C35.0664 73.8997 35.0776 73.7108 35.0664 73.5663L35.2797 73.5885C35.2909 73.9887 35.3134 74.2777 35.3695 74.4778C35.4145 74.6779 35.5155 74.8224 35.6727 74.9224C35.8187 75.0225 36.0657 75.0892 36.3801 75.1114L37.1436 75.1781C37.3682 75.2003 37.5254 75.1892 37.6264 75.167C37.7275 75.1448 37.8061 75.078 37.851 74.978C37.8959 74.878 37.9296 74.7112 37.9521 74.4889L38.1429 72.3546L37.5366 72.299C37.2334 72.2768 37.0201 72.3435 36.8966 72.5213C36.7843 72.6992 36.6945 72.8771 36.6608 73.066C36.6159 73.255 36.5934 73.3773 36.5822 73.4329L36.3689 73.4106C36.4138 73.1105 36.4475 72.8326 36.4812 72.5547L36.5148 72.1212C36.5373 71.8099 36.5597 71.3875 36.5822 70.8317L36.7955 70.8539C36.7955 70.8984 36.8068 71.0429 36.8068 71.2986C36.818 71.5543 36.8741 71.7543 37.0089 71.8877C37.1324 72.0322 37.3233 72.1101 37.5703 72.1323L38.1766 72.1879L38.3675 70.0091C38.39 69.7868 38.3787 69.6201 38.3563 69.5089C38.3338 69.4088 38.2665 69.331 38.1654 69.2866C38.0644 69.2421 37.9072 69.2088 37.6938 69.1865L37.0201 69.1309C36.6383 69.0976 36.3464 69.1198 36.1331 69.2088C35.931 69.2866 35.7738 69.4422 35.6615 69.6534C35.5492 69.8646 35.4594 70.187 35.3695 70.6094L35.1562 70.5872C35.1562 70.4204 35.1787 70.1981 35.2123 69.9313Z" fill="#263238"/>
<path d="M26.3761 65.8073C26.5445 65.7739 26.7354 65.8073 26.9375 65.8962C27.1733 65.9963 27.3305 66.1408 27.4204 66.3297C27.5102 66.5298 27.5214 66.8077 27.4653 67.1746L27.2968 68.0861C27.2407 68.4085 27.207 68.653 27.1958 68.842C27.1846 69.0198 27.2295 69.1866 27.3081 69.3311C27.3867 69.4756 27.5326 69.5868 27.746 69.6757L28.5544 70.0092L29.3741 68.075C29.4639 67.8638 29.5088 67.7081 29.5201 67.597C29.5313 67.4858 29.4864 67.3969 29.4078 67.3191C29.3292 67.2413 29.1944 67.1635 28.9923 67.0745L29.0597 66.9078C29.318 67.0301 29.666 67.1857 30.1264 67.3747C30.6092 67.5748 30.9798 67.7193 31.2268 67.7971L31.1594 67.9638C30.9461 67.886 30.7889 67.8527 30.6878 67.8415C30.5755 67.8415 30.4857 67.8749 30.4183 67.9638C30.3397 68.0416 30.2611 68.1861 30.1713 68.3973L28.4085 72.5659C28.3186 72.7771 28.2737 72.9327 28.2625 73.0439C28.2513 73.155 28.2962 73.244 28.3748 73.3218C28.4534 73.3996 28.5881 73.4774 28.7902 73.5774L28.7229 73.7442C28.4871 73.633 28.1502 73.4774 27.7011 73.2884C27.4765 73.1995 27.2407 73.0995 26.9712 72.9883C26.7017 72.8771 26.5221 72.8104 26.421 72.766C25.9831 72.577 25.6351 72.3658 25.3768 72.1101C25.1185 71.8544 24.9726 71.5877 24.9052 71.2986C24.8378 71.0096 24.8715 70.7317 24.995 70.4538C25.0849 70.2315 25.2308 70.0314 25.4329 69.8536C25.6351 69.6757 25.8933 69.5423 26.2077 69.4756C26.5221 69.4089 26.9039 69.42 27.3193 69.5201L27.2183 69.4645C26.9825 69.32 26.8028 69.1755 26.6905 69.0198C26.5782 68.8753 26.4996 68.7086 26.4772 68.5307C26.4435 68.3529 26.4547 68.1306 26.4996 67.8638L26.6568 66.9189C26.6905 66.7299 26.713 66.5854 26.713 66.4743C26.713 66.3631 26.7017 66.2742 26.6681 66.2075C26.6344 66.1408 26.5782 66.0852 26.4996 66.063C26.4098 66.0185 26.32 66.0185 26.2414 66.0407C26.1628 66.063 26.0505 66.1185 25.9045 66.1964L25.8147 66.0518C26.0168 65.9296 26.2077 65.8406 26.3761 65.8073ZM26.9375 69.7646C26.6681 69.798 26.4547 69.898 26.2863 70.0648C26.1179 70.2315 25.9719 70.4538 25.8484 70.7428C25.6575 71.1986 25.6126 71.5988 25.7361 71.9211C25.8596 72.2435 26.1628 72.5103 26.6681 72.7215C26.8477 72.7993 26.9825 72.8327 27.0947 72.8215C27.1958 72.8215 27.2856 72.7771 27.3642 72.6882C27.4428 72.5992 27.5214 72.4547 27.6 72.2546L28.4758 70.187L27.9032 69.9536C27.5326 69.798 27.207 69.7313 26.9375 69.7646Z" fill="#263238"/>
<path d="M17.6171 67.3191C17.7181 67.3524 17.8192 67.3302 17.909 67.2746C17.9989 67.219 18.1224 67.0967 18.2683 66.9189L21.0867 63.3617C21.2326 63.1839 21.3225 63.0394 21.3561 62.9393C21.3898 62.8393 21.3786 62.7392 21.3225 62.6503C21.2663 62.5614 21.154 62.4391 20.9856 62.2946L21.0979 62.1501C21.3112 62.3391 21.6032 62.5836 21.9962 62.8837C22.4116 63.2061 22.726 63.4396 22.9393 63.5841L22.8271 63.7286C22.6474 63.5952 22.5014 63.5174 22.4004 63.4951C22.2993 63.4618 22.1983 63.4729 22.1084 63.5396C22.0186 63.5952 21.8951 63.7175 21.7491 63.8953L18.9308 67.4525C18.7848 67.6303 18.695 67.7748 18.6613 67.8749C18.6276 67.9749 18.6389 68.075 18.695 68.1639C18.7512 68.2528 18.8634 68.3751 19.0319 68.5196L18.9196 68.6641C18.7287 68.4974 18.4255 68.2528 18.0101 67.9193C17.6171 67.6192 17.3027 67.3858 17.0781 67.2301L17.1904 67.0856C17.3813 67.2079 17.516 67.2857 17.6171 67.3191Z" fill="#263238"/>
<path d="M10.3651 59.4045C10.3202 58.9042 10.4325 58.404 10.6907 57.926C10.9602 57.4369 11.3645 57.0034 11.9259 56.5921C12.4761 56.203 13.0263 55.9474 13.5989 55.8473C14.1715 55.7473 14.6993 55.7806 15.1933 55.9696C15.6874 56.1586 16.1028 56.4809 16.4284 56.9367C16.7765 57.4036 16.9674 57.8927 17.0123 58.3929C17.0572 58.8931 16.945 59.3933 16.6867 59.8713C16.4172 60.3604 16.013 60.794 15.4516 61.2053C14.9014 61.5943 14.3512 61.85 13.7786 61.95C13.2171 62.0501 12.6782 62.0167 12.1841 61.8278C11.6901 61.6388 11.2746 61.3164 10.949 60.8718C10.6009 60.3938 10.41 59.9047 10.3651 59.4045ZM12.0494 61.3831C12.4424 61.4609 12.8915 61.4276 13.3856 61.272C13.8796 61.1163 14.3737 60.8607 14.8902 60.4827C15.4067 60.1159 15.8109 59.7157 16.0916 59.2933C16.3835 58.8709 16.5407 58.4485 16.5632 58.0483C16.5969 57.6481 16.4958 57.2924 16.2825 56.9923C16.0467 56.681 15.7435 56.4809 15.3393 56.4031C14.9463 56.3253 14.4972 56.3586 14.0031 56.5143C13.5091 56.6699 13.015 56.9256 12.4985 57.2924C11.982 57.6592 11.5778 58.0594 11.2971 58.4929C11.0051 58.9153 10.8479 59.3266 10.8143 59.7379C10.7806 60.1381 10.8816 60.4938 11.095 60.794C11.3308 61.1052 11.6452 61.3053 12.0494 61.3831Z" fill="#263238"/>
<path d="M11.2298 46.0206C11.3645 46.1207 11.4656 46.2874 11.533 46.5098C11.6116 46.7432 11.6003 46.9655 11.5105 47.1545C11.4207 47.3546 11.2073 47.5435 10.8817 47.7325L10.062 48.1883C9.78134 48.355 9.568 48.4884 9.42203 48.5996C9.27606 48.7107 9.175 48.8441 9.11886 48.9998C9.06272 49.1554 9.06272 49.3332 9.13009 49.5556L9.38834 50.3893L11.4095 49.7668C11.634 49.7001 11.78 49.6334 11.8698 49.5667C11.9596 49.5 12.0046 49.4111 12.0158 49.311C12.027 49.211 11.9933 49.0442 11.9372 48.833L12.1168 48.7774C12.1842 49.0442 12.2853 49.4222 12.4425 49.889C12.5997 50.3893 12.7232 50.7561 12.813 50.9895L12.6333 51.0451C12.5547 50.8339 12.4874 50.6894 12.42 50.6116C12.3526 50.5338 12.2628 50.4782 12.1505 50.4782C12.0382 50.4782 11.8698 50.5004 11.6565 50.5782L7.29987 51.9122C7.0753 51.9789 6.92933 52.0456 6.8395 52.1123C6.74968 52.179 6.70476 52.2679 6.69353 52.3679C6.68231 52.4791 6.71599 52.6347 6.77213 52.8459L6.59248 52.9015C6.53634 52.657 6.43528 52.3012 6.28931 51.8344C6.22194 51.612 6.13212 51.3564 6.04229 51.0896C5.95246 50.8228 5.88509 50.6338 5.85141 50.5338C5.70544 50.078 5.66052 49.6778 5.69421 49.3221C5.72789 48.9664 5.84018 48.6774 6.01983 48.444C6.19949 48.2105 6.43528 48.0549 6.72722 47.966C6.95179 47.8993 7.19881 47.877 7.46829 47.9104C7.73777 47.9437 7.99603 48.0549 8.26551 48.255C8.53499 48.4551 8.75956 48.7441 8.95044 49.1332L8.93921 49.022C8.90552 48.7441 8.8943 48.5218 8.93921 48.3328C8.98412 48.1438 9.06272 47.9882 9.17501 47.8548C9.29852 47.7214 9.47817 47.5769 9.71397 47.4435L10.5449 46.9544C10.7133 46.8655 10.848 46.7765 10.9266 46.7098C11.0052 46.6431 11.0726 46.5765 11.1063 46.5098C11.14 46.4431 11.14 46.3652 11.1175 46.2874C11.0838 46.1874 11.0389 46.1207 10.9715 46.0762C10.9042 46.0318 10.7919 45.9762 10.6347 45.9206L10.6908 45.7539C10.9154 45.8317 11.1063 45.9206 11.2298 46.0206ZM8.54622 48.9998C8.35533 48.8219 8.13077 48.7219 7.89497 48.6996C7.65918 48.6774 7.38969 48.7107 7.08653 48.8108C6.60371 48.9553 6.27808 49.1887 6.09843 49.4889C5.91878 49.789 5.91878 50.2003 6.07597 50.7005C6.13212 50.8784 6.19949 51.0118 6.26686 51.0896C6.33423 51.1674 6.43528 51.2119 6.54757 51.2119C6.65985 51.2119 6.82828 51.1785 7.03039 51.1229L9.18623 50.456L9.00658 49.8668C8.8943 49.4666 8.7371 49.1776 8.54622 48.9998Z" fill="#263238"/>
<path d="M10.3635 35.4715C10.7901 35.2825 11.0484 34.9268 11.1607 34.3932C11.1944 34.1931 11.1944 33.993 11.1382 33.8041C11.0821 33.6151 10.981 33.4484 10.8238 33.3038C10.6666 33.1593 10.4533 33.0593 10.1726 33.0148C9.93679 32.9704 9.72345 32.9926 9.52134 33.0704C9.31923 33.1482 9.11712 33.2705 8.92624 33.4372C8.73536 33.604 8.51079 33.8263 8.26377 34.1042C7.98306 34.4155 7.73603 34.6711 7.52269 34.849C7.30935 35.038 7.07356 35.1713 6.81531 35.2714C6.55705 35.3714 6.26511 35.3826 5.93949 35.327C5.60264 35.2603 5.32193 35.138 5.11982 34.9379C4.91771 34.7378 4.77174 34.5044 4.70437 34.2265C4.637 33.9486 4.637 33.6596 4.69314 33.3483C4.72683 33.1593 4.77174 33.0148 4.82788 32.8814C4.88403 32.748 4.94017 32.648 5.00754 32.5702C5.07491 32.4924 5.14228 32.4034 5.2321 32.3145C5.34439 32.1922 5.40053 32.1033 5.42299 32.0366C5.43422 31.981 5.41176 31.9366 5.35562 31.8921C5.29947 31.8476 5.19842 31.8143 5.06368 31.7698L5.09736 31.5697C5.44544 31.6587 6.05178 31.7921 6.93882 31.9588L6.90513 32.1589C6.59074 32.1255 6.2988 32.1367 6.00686 32.2033C5.72615 32.2589 5.47913 32.3812 5.27702 32.5702C5.07491 32.748 4.94017 33.0037 4.88402 33.315C4.83911 33.5262 4.85034 33.7151 4.90648 33.9041C4.96262 34.0931 5.06368 34.2376 5.19842 34.3599C5.34439 34.4821 5.51281 34.56 5.71492 34.6044C6.04055 34.66 6.32126 34.6155 6.55705 34.4599C6.79285 34.3043 7.01742 34.1042 7.23075 33.8708C7.44409 33.6373 7.57883 33.4817 7.65743 33.4039C7.97183 33.0704 8.23008 32.8147 8.44342 32.6258C8.65676 32.4368 8.89255 32.3034 9.15081 32.2145C9.40906 32.1255 9.68977 32.1144 9.99293 32.17C10.3635 32.2367 10.6666 32.3812 10.8912 32.5924C11.1158 32.8147 11.2617 33.0704 11.3403 33.3817C11.4189 33.6929 11.4189 34.0264 11.3516 34.3821C11.2954 34.6711 11.2281 34.8934 11.127 35.0713C11.0372 35.2492 10.9137 35.4048 10.7789 35.5493C10.6666 35.6716 10.6105 35.7605 10.588 35.8272C10.5768 35.8828 10.5993 35.9272 10.6554 35.9717C10.7116 36.0162 10.8126 36.0606 10.9473 36.094L10.9137 36.2941C10.588 36.2051 9.86942 36.0606 8.75781 35.8605L8.7915 35.6605C9.42029 35.716 9.93679 35.6605 10.3635 35.4715Z" fill="#263238"/>
<path d="M8.14042 26.1006C7.82603 25.9339 7.46672 25.7782 7.0625 25.6226C7.30952 25.1891 7.72497 24.4332 8.28639 23.3549C8.84781 22.2878 9.2408 21.5319 9.45414 21.0761C9.82468 21.3096 10.1615 21.5097 10.4647 21.6653C10.7342 21.8098 10.97 21.9098 11.1496 21.9877L11.0486 22.1766C10.5994 21.9988 10.2626 21.8876 10.0268 21.8543C9.791 21.8098 9.57766 21.8543 9.398 21.9654C9.21835 22.0766 9.03869 22.2989 8.87027 22.6324L8.6457 23.077L13.283 25.467C13.5076 25.5893 13.6872 25.6449 13.8108 25.656C13.9343 25.6671 14.0465 25.6337 14.1476 25.5448C14.2487 25.4559 14.3609 25.2891 14.4957 25.0557L14.6641 25.1446C14.4957 25.4225 14.2823 25.8116 14.0129 26.3229C13.7322 26.8565 13.53 27.2678 13.4065 27.5235L13.2381 27.4345C13.3504 27.19 13.429 27.001 13.4402 26.8787C13.4627 26.7453 13.429 26.6342 13.3392 26.5341C13.2493 26.4341 13.1034 26.3341 12.8788 26.2118L8.24148 23.8107L8.00568 24.2442C7.82603 24.5777 7.74743 24.8445 7.75866 25.0557C7.76989 25.2669 7.85971 25.4559 8.02814 25.6226C8.19657 25.7894 8.47727 26.0117 8.8815 26.2674L8.78044 26.4563C8.63447 26.3674 8.4099 26.2451 8.14042 26.1006Z" fill="#263238"/>
<path d="M16.0682 13.3283C16.2591 13.1393 16.4163 12.9614 16.5286 12.828L16.6633 12.9614C16.596 13.0615 16.5623 13.206 16.5735 13.3727C16.5847 13.5395 16.6296 13.7729 16.7195 14.0508L17.7412 17.0633L18.9315 18.2305C19.0999 18.3861 19.2234 18.4972 19.3244 18.5417C19.4255 18.5862 19.5266 18.5862 19.6276 18.5417C19.7287 18.4972 19.8522 18.3972 20.0206 18.2527L20.1554 18.3861C19.942 18.5751 19.6613 18.8418 19.3132 19.1864C18.9427 19.5533 18.6732 19.8423 18.5048 20.0313L18.37 19.8979C18.516 19.7311 18.6171 19.6088 18.662 19.5088C18.7069 19.4088 18.7069 19.3087 18.6507 19.2087C18.6058 19.1086 18.4936 18.9752 18.3364 18.8196L17.3483 17.8525L13.598 16.7631C13.3734 16.6964 13.205 16.6742 13.0927 16.6853C12.9804 16.6964 12.9018 16.7298 12.8457 16.7854L12.7109 16.652C12.8906 16.4963 13.0927 16.3185 13.2948 16.1073C13.7103 15.6849 14.0134 15.3847 14.1819 15.1846L14.3166 15.318C14.0134 15.6182 13.9461 15.8516 14.1145 16.0184C14.1819 16.085 14.2717 16.1295 14.4064 16.174L17.5616 17.1411L16.7307 14.6844C16.6072 14.3287 16.4837 14.0842 16.3489 13.9619C16.2254 13.8396 16.0907 13.8062 15.9447 13.8507C15.7987 13.8952 15.6303 14.0063 15.4282 14.1953L15.2935 14.0619C15.5629 13.8174 15.81 13.5728 16.0682 13.3283Z" fill="#263238"/>
<path d="M22.861 8.84847C22.7936 8.92628 22.7599 9.02633 22.7824 9.13749C22.8049 9.24865 22.861 9.40427 22.9733 9.60436L25.1404 13.5839C25.2526 13.784 25.3425 13.9174 25.4323 13.9952C25.5109 14.073 25.612 14.0953 25.713 14.0841C25.8141 14.073 25.9713 14.0063 26.1621 13.9063L26.7572 13.5839C27.0941 13.4061 27.3299 13.2171 27.4534 13.0281C27.5769 12.8391 27.6218 12.6279 27.5881 12.3723C27.5545 12.1166 27.4534 11.7942 27.2738 11.3718L27.4646 11.2718C27.5432 11.4496 27.6555 11.672 27.8015 11.9387C27.9699 12.2389 28.172 12.5724 28.419 12.9392C28.0485 13.117 27.4197 13.4394 26.5551 13.9063C25.5221 14.4621 24.7361 14.8845 24.2196 15.1846L24.1298 15.029C24.3207 14.9179 24.4554 14.8178 24.5228 14.74C24.5902 14.6622 24.6239 14.5621 24.6014 14.451C24.5789 14.3398 24.5228 14.1842 24.4105 13.9841L22.221 10.0045C22.1087 9.80445 22.0189 9.67106 21.929 9.59325C21.8504 9.51543 21.7494 9.4932 21.6483 9.50432C21.5361 9.51543 21.3901 9.57101 21.188 9.67106L21.1094 9.50432C21.3452 9.40427 21.6933 9.22641 22.1536 8.97074C22.5915 8.73731 22.9284 8.54833 23.1642 8.40382L23.254 8.55945C23.0631 8.67061 22.9396 8.77065 22.861 8.84847Z" fill="#263238"/>
<path d="M36.5385 9.55984C36.6059 9.89332 36.7069 10.2713 36.8304 10.6937C36.415 10.7604 35.7301 10.8827 34.7644 11.0716C33.6079 11.2939 32.7433 11.4718 32.1482 11.6052L32.1145 11.4273C32.3279 11.3718 32.4851 11.3273 32.5749 11.2606C32.6647 11.205 32.7208 11.1161 32.7321 11.016C32.7433 10.9049 32.7321 10.7381 32.6872 10.5158L31.8114 6.0805C31.7664 5.85818 31.7215 5.70256 31.6542 5.60251C31.5868 5.50247 31.5194 5.44689 31.4071 5.43577C31.3061 5.41354 31.1376 5.42465 30.9243 5.458L30.8906 5.28014C31.4857 5.1801 32.3615 5.02447 33.5068 4.80215C34.3939 4.6243 35.0227 4.50202 35.382 4.41309C35.4157 4.81327 35.4718 5.16898 35.5279 5.48023C35.5729 5.71367 35.6178 5.89153 35.6627 6.02492L35.4606 6.06939C35.3371 5.69144 35.2248 5.41354 35.1237 5.23568C35.0227 5.05782 34.8767 4.94666 34.7083 4.89108C34.5286 4.8355 34.2928 4.8355 33.9672 4.9022L33.2149 5.04671C33.0016 5.09117 32.8444 5.13564 32.7545 5.19122C32.6647 5.2468 32.6086 5.32461 32.5861 5.43577C32.5749 5.54693 32.5861 5.71367 32.631 5.93599L33.0465 8.04805L33.6416 7.92577C33.9447 7.87019 34.1244 7.7368 34.1918 7.53671C34.2591 7.33662 34.2816 7.14765 34.2704 6.95867C34.2591 6.7697 34.2479 6.64742 34.2479 6.59184L34.45 6.54738C34.4837 6.84751 34.5286 7.12542 34.5848 7.3922L34.6746 7.81461C34.7307 8.11475 34.8318 8.53716 34.9778 9.07073L34.7756 9.1152C34.7644 9.07073 34.7195 8.93734 34.6409 8.69278C34.5623 8.44823 34.45 8.28149 34.2816 8.18144C34.1132 8.0814 33.9223 8.05917 33.6753 8.10363L33.0802 8.21479L33.5068 10.3602C33.5517 10.5825 33.5967 10.7381 33.6528 10.8382C33.7089 10.9271 33.7875 10.9827 33.8998 11.0049C34.0009 11.016 34.1693 11.0049 34.3827 10.9605L35.0451 10.8271C35.4157 10.7493 35.6964 10.6492 35.876 10.5158C36.0557 10.3824 36.1567 10.1935 36.2016 9.96002C36.2466 9.72658 36.2466 9.3931 36.2129 8.95957L36.415 8.91511C36.4487 9.08185 36.4824 9.29305 36.5385 9.55984Z" fill="#263238"/>
<path d="M28.9688 52.0122C28.4523 51.323 28.0032 50.5671 27.6102 49.7334C27.2172 48.8997 26.9028 48.0549 26.667 47.1878C26.1505 43.375 26.1393 39.6733 26.6221 36.0828C27.1049 32.4923 27.8909 28.9574 28.9688 25.467C29.1485 25.0779 29.5415 24.8889 30.1478 24.8889C30.7542 24.8889 31.3493 25.0223 31.9556 25.2891C32.5619 25.5559 33.056 25.9116 33.449 26.3563C33.842 26.8009 33.9318 27.2678 33.7185 27.7458C33.3816 28.4572 33.056 29.4243 32.7304 30.6248C32.4047 31.8365 32.0791 33.1704 31.7872 34.6266C31.484 36.0828 31.2258 37.6169 31.0012 39.2065C30.7766 40.7961 30.6082 42.3301 30.5071 43.7863C30.4061 45.2425 30.3836 46.5653 30.4398 47.7436C30.4959 48.9219 30.6756 49.8557 30.9787 50.5338C32.3935 48.6551 33.6848 46.7098 34.8637 44.6978C36.0427 42.6858 37.1431 40.6516 38.1761 38.5729C39.2091 36.5053 40.1972 34.4154 41.1292 32.2923C42.0611 30.1802 42.9819 28.0904 43.8801 26.0339C44.3293 24.989 44.7784 23.8885 45.2163 22.7324C45.6542 21.5652 46.2269 20.5759 46.9567 19.7422C47.2599 19.4754 47.4957 19.3865 47.6529 19.4754C47.8213 19.5643 47.9336 19.7311 47.9897 19.9867C48.0459 20.2424 48.0795 20.5092 48.0795 20.7871C48.0795 21.065 48.0795 21.2873 48.0795 21.4318C47.8662 22.7991 47.6865 24.1553 47.5406 25.5003C47.3946 26.8454 47.069 28.1348 46.5974 29.391C45.8114 31.3585 45.0142 33.3038 44.1833 35.2491C43.3524 37.1833 42.4654 39.0953 41.5222 40.9739C40.579 42.8525 39.546 44.6756 38.4568 46.443C37.3564 48.2216 36.1662 49.9113 34.8637 51.512C33.842 52.7903 32.8202 53.4684 31.8209 53.5462C30.7766 53.6352 29.8447 53.1127 28.9688 52.0122Z" fill="#FF5196" stroke="white" stroke-miterlimit="10"/>
<path d="M47.5649 46.9656C46.9586 46.1319 46.3635 45.287 45.7796 44.42C45.1957 43.5529 44.9038 42.6081 44.9038 41.5632C44.9038 40.4071 45.2406 39.3066 45.9143 38.2728C46.588 37.2501 47.3628 36.4164 48.2386 35.7939C48.5979 35.5605 48.9684 35.3604 49.339 35.2159C49.7095 35.0714 50.1137 35.0825 50.5404 35.2603C50.7201 35.3493 50.9109 35.416 51.1018 35.4604C51.2927 35.5049 51.4724 35.5605 51.6183 35.616C51.7643 35.6716 51.9327 35.7606 52.1124 35.8828C52.292 36.0051 52.3819 36.1607 52.3819 36.3719C52.3819 37.2056 52.4043 37.8837 52.4492 38.4062C52.4941 38.9286 52.5615 39.3733 52.6513 39.7512C52.7412 40.1292 52.831 40.4515 52.9208 40.7294C53.0107 41.0185 53.1005 41.3186 53.1903 41.641C53.2464 41.9411 53.2352 42.1968 53.1454 42.3969C53.0556 42.6081 52.831 42.6303 52.4717 42.4858C51.8092 42.2524 51.3152 41.7744 51.0008 41.0518C50.6864 40.3293 50.4506 39.6845 50.3046 39.0843C50.2709 38.962 50.2036 38.7619 50.08 38.4618C49.9565 38.1616 49.8892 37.9504 49.8555 37.8393C49.6197 37.7837 49.3277 37.8615 49.0021 38.0838C48.6765 38.3061 48.3733 38.6174 48.1263 38.9953C47.8681 39.3844 47.6996 39.829 47.6323 40.3404C47.5537 40.8517 47.6547 41.3519 47.9242 41.8633C48.0477 42.0411 48.2161 42.2635 48.4407 42.508C48.6653 42.7637 48.8898 43.0194 49.1144 43.2861C49.339 43.5529 49.5635 43.8197 49.7881 44.0643C50.0127 44.3088 50.2036 44.52 50.3495 44.6645C50.5292 44.8424 50.6527 44.9424 50.7088 44.9536C50.765 44.9647 50.9222 44.9313 51.158 44.8424C51.4611 44.6979 51.9215 44.4978 52.5391 44.2644C53.1566 44.0309 53.8079 43.7864 54.4816 43.5529C55.1553 43.3195 55.8065 43.1194 56.4241 42.9527C57.0416 42.7859 57.5132 42.7081 57.8501 42.7081C58.0634 42.7081 58.2094 42.7859 58.2992 42.9304C58.389 43.0194 58.3778 43.1416 58.2543 43.2861C58.1308 43.4307 57.9736 43.5863 57.7827 43.7308C57.5918 43.8753 57.3785 44.0087 57.1764 44.131C56.963 44.2532 56.8283 44.3199 56.7722 44.3533C56.2557 44.6534 55.6156 44.9869 54.8296 45.3649C54.0437 45.7317 53.37 46.0985 52.7973 46.4542C52.7412 46.5098 52.6289 46.5765 52.4605 46.6321C52.292 46.6877 52.1685 46.7544 52.0787 46.8099C52.438 47.6103 52.6963 48.3106 52.8422 48.8887C52.9882 49.4667 53.0443 50.0225 52.9994 50.5672C52.9545 51.1008 52.8422 51.6454 52.6626 52.2013C52.4829 52.7571 52.2359 53.3907 51.944 54.1021C51.5173 54.7913 51.0906 55.4471 50.6527 56.0696C50.2148 56.6921 49.732 57.2591 49.1818 57.7704C48.6428 58.2818 48.0477 58.6819 47.4189 58.9709C46.7901 59.2711 46.094 59.4156 45.3417 59.4156C44.915 59.4156 44.5108 59.36 44.1178 59.26C43.7248 59.1599 43.3992 58.9376 43.1297 58.6152C42.4335 57.8705 42.0518 57.059 41.9619 56.1808C41.8721 55.3026 41.9507 54.4356 42.1865 53.5685C42.3662 53.035 42.5907 52.5458 42.8602 52.0901C43.5227 50.9562 44.2525 50.0003 45.0497 49.211C45.8582 48.4329 46.6891 47.677 47.5649 46.9656ZM49.1032 48.9776C48.7663 49.3111 48.3172 49.7779 47.7445 50.3893C47.1719 51.0007 46.6442 51.6677 46.1389 52.3791C45.6448 53.0905 45.2406 53.802 44.9262 54.5023C44.6118 55.2026 44.5332 55.8029 44.6792 56.3142C45.2855 56.0474 45.9031 55.6028 46.5319 54.9914C47.1607 54.38 47.7221 53.713 48.2049 52.9794C48.6877 52.2457 49.0246 51.5232 49.2155 50.8117C49.4063 50.0892 49.3727 49.4778 49.1032 48.9776Z" fill="#FF5196" stroke="white" stroke-miterlimit="10"/>
<path d="M40.2428 65.0625C26.1961 65.0625 14.7656 53.7463 14.7656 39.8401C14.7656 25.9338 26.1961 14.6176 40.2428 14.6176C54.2895 14.6176 65.72 25.9338 65.72 39.8401C65.72 53.7463 54.2895 65.0625 40.2428 65.0625ZM40.2428 15.7293C26.8137 15.7293 15.8885 26.5452 15.8885 39.8401C15.8885 53.1349 26.8137 63.9509 40.2428 63.9509C53.6719 63.9509 64.5971 53.1349 64.5971 39.8401C64.5971 26.5452 53.6719 15.7293 40.2428 15.7293Z" fill="#263238"/>
</g>
</svg>
