<svg width="116" height="64" viewBox="0 0 116 64" fill="none" xmlns="http://www.w3.org/2000/svg">
<path d="M30.4506 14.6801L1.52344 28.6801V35.6801H113.523V0.68013L65.3115 22.6801L30.4506 14.6801Z" fill="url(#paint0_linear_1714_31842)"/>
<path d="M0.523438 28.6801L29.9671 14.4345L65.4506 22.2942L114.523 0.68013" stroke="#4C56CC" stroke-linecap="round"/>
<path d="M20.918 51.9096C20.918 53.81 21.4512 55.2114 22.5176 56.1137C23.5908 57.0161 24.9307 57.4672 26.5371 57.4672C28.1367 57.4672 29.4697 57.0161 30.5361 56.1137C31.6025 55.2114 32.1357 53.81 32.1357 51.9096V42.2504H29.4185V52.0634C29.4185 53.2324 29.1553 54.0698 28.6289 54.5756C28.1025 55.0747 27.4087 55.3242 26.5474 55.3242C25.6792 55.3242 24.9819 55.0747 24.4556 54.5756C23.936 54.0698 23.6763 53.2324 23.6763 52.0634V42.2504H20.918V51.9096ZM34.853 61.4765H37.5293V56.0522C37.8164 56.4624 38.2231 56.7871 38.7495 57.0263C39.2827 57.2656 39.8979 57.3852 40.5952 57.3852C41.9282 57.3852 43.0015 56.8964 43.8149 55.9189C44.6284 54.9345 45.0352 53.6425 45.0352 52.0429V51.7148C45.0352 50.1084 44.625 48.8198 43.8047 47.8491C42.9844 46.8715 41.8975 46.3828 40.5439 46.3828C39.8467 46.3828 39.2212 46.5263 38.6675 46.8134C38.1138 47.0937 37.7139 47.4458 37.4678 47.8696H37.4165L37.355 46.5981H34.853V61.4765ZM37.5293 53.7758V49.9716C37.707 49.5615 37.9941 49.2026 38.3906 48.895C38.7939 48.5805 39.2861 48.4233 39.8672 48.4233C40.7012 48.4233 41.3164 48.7138 41.7129 49.2949C42.1094 49.8691 42.3076 50.6416 42.3076 51.6123V52.1455C42.3076 53.1162 42.1094 53.8955 41.7129 54.4834C41.3164 55.0644 40.7046 55.3549 39.8774 55.3549C39.3101 55.3549 38.8179 55.1977 38.4009 54.8833C37.9907 54.562 37.7002 54.1928 37.5293 53.7758ZM51.5771 53.0273C51.5771 54.456 52.0967 55.5532 53.1357 56.3188C54.1816 57.0844 55.542 57.4672 57.2168 57.4672C58.8984 57.4672 60.2417 57.0776 61.2466 56.2983C62.2583 55.5122 62.7642 54.4423 62.7642 53.0888C62.7642 51.7968 62.3711 50.7988 61.585 50.0947C60.7988 49.3837 59.6367 48.8095 58.0986 48.372C56.6494 47.9687 55.7026 47.6132 55.2583 47.3056C54.814 46.998 54.5918 46.5639 54.5918 46.0034C54.5918 45.4155 54.7969 44.9506 55.207 44.6088C55.6172 44.267 56.2563 44.0961 57.1245 44.0961C57.9927 44.0961 58.6455 44.3046 59.083 44.7216C59.5273 45.1318 59.7495 45.6821 59.7495 46.3725V46.5981H62.4668V46.3212C62.4668 45.0087 61.978 43.956 61.0005 43.163C60.0298 42.3632 58.7344 41.9633 57.1143 41.9633C55.4873 41.9633 54.1987 42.353 53.2485 43.1323C52.2983 43.9047 51.8232 44.9233 51.8232 46.1879C51.8301 47.3911 52.2095 48.331 52.9614 49.0078C53.7202 49.6845 54.8823 50.2451 56.4478 50.6894C57.8901 51.0927 58.8438 51.4687 59.3086 51.8173C59.7734 52.166 60.0059 52.6479 60.0059 53.2631C60.0059 53.892 59.7632 54.3979 59.2778 54.7807C58.7993 55.1635 58.1089 55.3549 57.2065 55.3549C56.3042 55.3549 55.6001 55.1567 55.0942 54.7602C54.5884 54.3637 54.3354 53.769 54.3354 52.976V52.7197H51.5771V53.0273ZM64.7739 57.1801H67.4502V50.0332C67.6484 49.5546 67.9321 49.1752 68.3013 48.895C68.6704 48.6147 69.1079 48.4746 69.6138 48.4746C70.1948 48.4746 70.6494 48.6318 70.9775 48.9462C71.3057 49.2607 71.4697 49.7871 71.4697 50.5253V57.1801H74.1357V50.3613C74.1357 48.9462 73.8145 47.9311 73.1719 47.3159C72.5361 46.6938 71.7158 46.3828 70.7109 46.3828C69.959 46.3828 69.3096 46.5297 68.7627 46.8237C68.2158 47.1176 67.7783 47.5004 67.4502 47.9721V41.5839H64.7739V57.1801ZM76.1455 52.0429C76.1455 53.6835 76.6343 54.9995 77.6118 55.9907C78.5962 56.9819 79.8882 57.4775 81.4878 57.4775C83.0874 57.4775 84.376 56.9819 85.3535 55.9907C86.3311 54.9995 86.8198 53.6835 86.8198 52.0429V51.7148C86.8198 50.081 86.3311 48.7685 85.3535 47.7773C84.376 46.7861 83.0874 46.2905 81.4878 46.2905C79.8882 46.2905 78.5962 46.7861 77.6118 47.7773C76.6343 48.7685 76.1455 50.081 76.1455 51.7148V52.0429ZM78.873 51.6123C78.873 50.6074 79.0986 49.811 79.5498 49.2231C80.001 48.6352 80.647 48.3413 81.4878 48.3413C82.3218 48.3413 82.9644 48.6352 83.4155 49.2231C83.8667 49.811 84.0923 50.6074 84.0923 51.6123V52.1557C84.0923 53.1606 83.8701 53.957 83.4258 54.5449C82.9814 55.1328 82.3354 55.4267 81.4878 55.4267C80.6401 55.4267 79.9907 55.1328 79.5396 54.5449C79.0952 53.957 78.873 53.1606 78.873 52.1557V51.6123ZM87.5786 48.5668H94.0488V46.5981H87.5786V48.5668ZM89.2705 54.1757C89.2705 55.3173 89.5474 56.1513 90.1011 56.6777C90.6548 57.2041 91.3999 57.4672 92.3364 57.4672C92.6987 57.4672 93.0269 57.4365 93.3208 57.375C93.6216 57.3134 93.854 57.2451 94.0181 57.1699V55.2011C93.8608 55.2626 93.6968 55.3139 93.5259 55.3549C93.3618 55.3891 93.1978 55.4062 93.0337 55.4062C92.6714 55.4062 92.3945 55.3105 92.2031 55.1191C92.0186 54.9277 91.9263 54.5688 91.9263 54.0424V43.8911H89.291V47.2851L89.2705 47.562V54.1757Z" fill="#263238"/>
<defs>
<linearGradient id="paint0_linear_1714_31842" x1="57.5234" y1="0.68013" x2="57.3549" y2="35.1811" gradientUnits="userSpaceOnUse">
<stop stop-color="#7782FF"/>
<stop offset="1" stop-color="#7782FF" stop-opacity="0"/>
</linearGradient>
</defs>
</svg>
