<svg width="50" height="50" viewBox="0 0 50 50" fill="none" xmlns="http://www.w3.org/2000/svg">
<rect x="2" y="26" width="13" height="24" rx="4" fill="#FFB1F3"/>
<rect x="19" y="15" width="14" height="35" rx="4" fill="#FB5BE1"/>
<rect x="37" y="2" width="13" height="48" rx="4" fill="#FFB1F3"/>
<circle cx="9" cy="9" r="9" fill="#434343"/>
<path fill-rule="evenodd" clip-rule="evenodd" d="M7.7322 5.27535L12.3033 6.41843C12.5838 6.48858 12.7468 6.7708 12.6672 7.0488L11.3716 11.579C11.2921 11.857 11.0003 12.0255 10.7198 11.9554C10.4393 11.8852 10.2763 11.603 10.3558 11.325L11.3039 8.01L6.10209 11.0133C5.85591 11.1554 5.54113 11.0711 5.399 10.8249C5.25687 10.5787 5.34122 10.2639 5.58739 10.1218L10.7892 7.11852L7.44429 6.28207C7.16378 6.21192 7.00084 5.92969 7.08034 5.6517C7.15985 5.3737 7.45169 5.2052 7.7322 5.27535Z" fill="white"/>
</svg>
