<svg width="62" height="62" viewBox="0 0 62 62" fill="none" xmlns="http://www.w3.org/2000/svg">
<path d="M22.5625 27.4611C22.9247 27.2485 23.2248 26.9448 23.4332 26.5802C23.6415 26.2157 23.7507 25.8029 23.75 25.3829V4.00794C23.7533 3.62536 23.6642 3.24764 23.4901 2.90692C23.3161 2.5662 23.0623 2.27258 22.7504 2.05103C22.4385 1.82948 22.0776 1.68656 21.6986 1.63444C21.3196 1.58233 20.9336 1.62255 20.5734 1.75169C14.5606 3.89361 9.35663 7.84142 5.67382 13.0548C1.991 18.2681 0.00931525 24.4922 0 30.8751C0.00321601 32.7665 0.172091 34.6539 0.504688 36.5158C0.576046 36.8877 0.734243 37.2375 0.966394 37.5367C1.19855 37.8359 1.49809 38.0761 1.84063 38.2376C2.15673 38.3866 2.50062 38.4676 2.85 38.4751C3.26766 38.4726 3.67727 38.3599 4.0375 38.1486L22.5625 27.4611ZM19 7.60013V24.0173L4.77969 32.2408C4.75 31.7658 4.75 31.3204 4.75 30.8751C4.75912 26.0611 6.09367 21.3426 8.60732 17.237C11.121 13.1314 14.7166 9.79722 19 7.60013Z" fill="#C9CDFF"/>
<path d="M57.6813 15.5563C57.6506 15.5231 57.63 15.4819 57.6219 15.4375L57.5032 15.2891C54.7861 10.637 50.8981 6.77774 46.226 4.09533C41.554 1.41293 36.2608 0.000971078 30.8735 0C30.2436 0 29.6395 0.250222 29.1941 0.695621C28.7487 1.14102 28.4985 1.74511 28.4985 2.375V29.5094L5.01565 43.0766C4.74194 43.2278 4.50124 43.4323 4.30772 43.6779C4.1142 43.9236 3.97175 44.2054 3.88877 44.5069C3.80579 44.8084 3.78394 45.1235 3.82451 45.4336C3.86508 45.7437 3.96726 46.0425 4.12502 46.3125V46.3719L4.21409 46.5203C7.63868 52.3826 12.9001 56.9527 19.184 59.5232C25.4678 62.0937 32.4238 62.5213 38.9752 60.7398C45.5266 58.9582 51.3081 55.067 55.4249 49.6682C59.5417 44.2695 61.7642 37.6643 61.7485 30.875C61.7557 25.5009 60.3533 20.219 57.6813 15.5563Z" fill="#7782FF"/>
</svg>
