<svg width="63" height="68" viewBox="0 0 63 68" fill="none" xmlns="http://www.w3.org/2000/svg">
<rect width="63" height="68" rx="12" fill="#CDF1F9"/>
<path d="M56.9702 34.0153C56.9702 34.5647 56.7511 35.0915 56.3611 35.48C55.9711 35.8685 55.4422 36.0867 54.8906 36.0867H32.0154C31.4638 36.0867 30.9349 35.8685 30.5449 35.48C30.1549 35.0915 29.9358 34.5647 29.9358 34.0153C29.9358 33.466 30.1549 32.9391 30.5449 32.5507C30.9349 32.1622 31.4638 31.944 32.0154 31.944H54.8906C55.4422 31.944 55.9711 32.1622 56.3611 32.5507C56.7511 32.9391 56.9702 33.466 56.9702 34.0153ZM32.0154 19.5159H54.8906C55.4422 19.5159 55.9711 19.2976 56.3611 18.9092C56.7511 18.5207 56.9702 17.9939 56.9702 17.4445C56.9702 16.8952 56.7511 16.3683 56.3611 15.9799C55.9711 15.5914 55.4422 15.3732 54.8906 15.3732H32.0154C31.4638 15.3732 30.9349 15.5914 30.5449 15.9799C30.1549 16.3683 29.9358 16.8952 29.9358 17.4445C29.9358 17.9939 30.1549 18.5207 30.5449 18.9092C30.9349 19.2976 31.4638 19.5159 32.0154 19.5159ZM54.8906 48.5148H32.0154C31.4638 48.5148 30.9349 48.733 30.5449 49.1215C30.1549 49.5099 29.9358 50.0368 29.9358 50.5861C29.9358 51.1355 30.1549 51.6623 30.5449 52.0508C30.9349 52.4393 31.4638 52.6575 32.0154 52.6575H54.8906C55.4422 52.6575 55.9711 52.4393 56.3611 52.0508C56.7511 51.6623 56.9702 51.1355 56.9702 50.5861C56.9702 50.0368 56.7511 49.5099 56.3611 49.1215C55.9711 48.733 55.4422 48.5148 54.8906 48.5148ZM21.2536 11.7742L13.6372 18.765L10.5438 15.9169C10.1349 15.56 9.60184 15.3768 9.05893 15.4066C8.51601 15.4364 8.00641 15.6768 7.6393 16.0763C7.27219 16.4758 7.07678 17.0027 7.09493 17.544C7.11308 18.0852 7.34336 18.5979 7.73642 18.9721L12.2335 23.1148C12.6167 23.4644 13.1175 23.6584 13.6372 23.6586C14.1649 23.6599 14.6743 23.4661 15.0669 23.1148L24.061 14.8294C24.2693 14.6477 24.439 14.4263 24.5602 14.1784C24.6814 13.9304 24.7517 13.6609 24.767 13.3855C24.7822 13.1101 24.7421 12.8345 24.6489 12.5748C24.5558 12.3151 24.4115 12.0765 24.2246 11.8731C24.0376 11.6696 23.8118 11.5054 23.5603 11.3901C23.3088 11.2747 23.0367 11.2106 22.76 11.2014C22.4832 11.1921 22.2074 11.2381 21.9488 11.3364C21.6901 11.4348 21.4538 11.5836 21.2536 11.7742ZM21.2536 28.345L13.6372 35.3358L10.5438 32.4877C10.3437 32.2971 10.1073 32.1483 9.84867 32.0499C9.59 31.9516 9.31421 31.9057 9.03748 31.9149C8.76075 31.9241 8.48866 31.9882 8.23716 32.1036C7.98566 32.2189 7.75981 32.3831 7.57287 32.5866C7.38593 32.79 7.24166 33.0286 7.14853 33.2883C7.05539 33.548 7.01526 33.8236 7.03049 34.099C7.04573 34.3744 7.11602 34.644 7.23724 34.8919C7.35846 35.1399 7.52817 35.3612 7.73642 35.543L12.2335 39.6857C12.6167 40.0352 13.1175 40.2292 13.6372 40.2294C14.1649 40.2307 14.6743 40.0369 15.0669 39.6857L24.061 31.4003C24.2693 31.2185 24.439 30.9972 24.5602 30.7492C24.6814 30.5013 24.7517 30.2317 24.767 29.9563C24.7822 29.6809 24.7421 29.4053 24.6489 29.1456C24.5558 28.8859 24.4115 28.6473 24.2246 28.4439C24.0376 28.2404 23.8118 28.0762 23.5603 27.9609C23.3088 27.8455 23.0367 27.7814 22.76 27.7722C22.4832 27.7629 22.2074 27.8089 21.9488 27.9072C21.6901 28.0056 21.4538 28.1544 21.2536 28.345ZM21.2536 44.9158L13.6372 51.9066L10.5438 49.0585C10.3437 48.868 10.1073 48.7191 9.84867 48.6208C9.59 48.5224 9.31421 48.4765 9.03748 48.4857C8.76075 48.4949 8.48866 48.559 8.23716 48.6744C7.98566 48.7897 7.75981 48.9539 7.57287 49.1574C7.38593 49.3608 7.24166 49.5994 7.14853 49.8591C7.05539 50.1188 7.01526 50.3944 7.03049 50.6698C7.04573 50.9452 7.11602 51.2148 7.23724 51.4627C7.35846 51.7107 7.52817 51.932 7.73642 52.1138L12.2335 56.2565C12.6167 56.606 13.1175 56.8 13.6372 56.8002C14.1649 56.8015 14.6743 56.6077 15.0669 56.2565L24.061 47.9711C24.4541 47.5968 24.6844 47.0842 24.7025 46.5429C24.7207 46.0016 24.5253 45.4747 24.1581 45.0752C23.791 44.6757 23.2814 44.4353 22.7385 44.4055C22.1956 44.3757 21.6626 44.5589 21.2536 44.9158Z" fill="#27CAEA"/>
</svg>
